<svg width="705" height="380" viewBox="0 0 705 380" fill="none" xmlns="http://www.w3.org/2000/svg">
<g clip-path="url(#clip0_2901_93)">
<path d="M0 0H706.061V380H0V0Z" fill="#E6E6E6"/>
<path d="M540.753 343.425H15.0818C12.632 343.425 10.646 341.439 10.646 338.99V15.0817C10.646 12.6319 12.632 10.6459 15.0818 10.6459H540.753C543.203 10.6459 545.189 12.6319 545.189 15.0817V338.99C545.189 341.439 543.203 343.425 540.753 343.425Z" fill="#28282A"/>
<path d="M32.5291 374.086C39.8785 374.086 45.8365 368.128 45.8365 360.778C45.8365 353.429 39.8785 347.471 32.5291 347.471C25.1796 347.471 19.2217 353.429 19.2217 360.778C19.2217 368.128 25.1796 374.086 32.5291 374.086Z" fill="#333333"/>
<path d="M65.0584 374.086C72.4078 374.086 78.3658 368.128 78.3658 360.778C78.3658 353.429 72.4078 347.471 65.0584 347.471C57.7089 347.471 51.751 353.429 51.751 360.778C51.751 368.128 57.7089 374.086 65.0584 374.086Z" fill="#333333"/>
<path d="M97.5877 374.086C104.937 374.086 110.895 368.128 110.895 360.778C110.895 353.429 104.937 347.471 97.5877 347.471C90.2382 347.471 84.2803 353.429 84.2803 360.778C84.2803 368.128 90.2382 374.086 97.5877 374.086Z" fill="#333333"/>
<path d="M130.117 374.086C137.466 374.086 143.424 368.128 143.424 360.778C143.424 353.429 137.466 347.471 130.117 347.471C122.767 347.471 116.809 353.429 116.809 360.778C116.809 368.128 122.767 374.086 130.117 374.086Z" fill="#333333"/>
<path d="M162.646 374.086C169.995 374.086 175.953 368.128 175.953 360.778C175.953 353.429 169.995 347.471 162.646 347.471C155.297 347.471 149.339 353.429 149.339 360.778C149.339 368.128 155.297 374.086 162.646 374.086Z" fill="#333333"/>
<path d="M195.175 374.086C202.525 374.086 208.482 368.128 208.482 360.778C208.482 353.429 202.525 347.471 195.175 347.471C187.826 347.471 181.868 353.429 181.868 360.778C181.868 368.128 187.826 374.086 195.175 374.086Z" fill="#333333"/>
<path d="M227.704 374.086C235.054 374.086 241.012 368.128 241.012 360.778C241.012 353.429 235.054 347.471 227.704 347.471C220.355 347.471 214.397 353.429 214.397 360.778C214.397 368.128 220.355 374.086 227.704 374.086Z" fill="#333333"/>
<path d="M260.233 374.086C267.583 374.086 273.541 368.128 273.541 360.778C273.541 353.429 267.583 347.471 260.233 347.471C252.884 347.471 246.926 353.429 246.926 360.778C246.926 368.128 252.884 374.086 260.233 374.086Z" fill="#333333"/>
<path d="M292.763 374.086C300.112 374.086 306.07 368.128 306.07 360.778C306.07 353.429 300.112 347.471 292.763 347.471C285.413 347.471 279.455 353.429 279.455 360.778C279.455 368.128 285.413 374.086 292.763 374.086Z" fill="#333333"/>
<path d="M325.292 374.086C332.641 374.086 338.599 368.128 338.599 360.778C338.599 353.429 332.641 347.471 325.292 347.471C317.942 347.471 311.984 353.429 311.984 360.778C311.984 368.128 317.942 374.086 325.292 374.086Z" fill="#333333"/>
<path d="M357.821 374.086C365.171 374.086 371.128 368.128 371.128 360.778C371.128 353.429 365.171 347.471 357.821 347.471C350.472 347.471 344.514 353.429 344.514 360.778C344.514 368.128 350.472 374.086 357.821 374.086Z" fill="#333333"/>
<path d="M390.35 374.086C397.7 374.086 403.658 368.128 403.658 360.778C403.658 353.429 397.7 347.471 390.35 347.471C383.001 347.471 377.043 353.429 377.043 360.778C377.043 368.128 383.001 374.086 390.35 374.086Z" fill="#333333"/>
<path d="M422.879 374.086C430.229 374.086 436.187 368.128 436.187 360.778C436.187 353.429 430.229 347.471 422.879 347.471C415.53 347.471 409.572 353.429 409.572 360.778C409.572 368.128 415.53 374.086 422.879 374.086Z" fill="#333333"/>
<path d="M455.408 374.086C462.758 374.086 468.716 368.128 468.716 360.778C468.716 353.429 462.758 347.471 455.408 347.471C448.059 347.471 442.101 353.429 442.101 360.778C442.101 368.128 448.059 374.086 455.408 374.086Z" fill="#333333"/>
<path d="M487.938 374.086C495.287 374.086 501.245 368.128 501.245 360.778C501.245 353.429 495.287 347.471 487.938 347.471C480.588 347.471 474.63 353.429 474.63 360.778C474.63 368.128 480.588 374.086 487.938 374.086Z" fill="#333333"/>
<path d="M520.467 374.086C527.817 374.086 533.774 368.128 533.774 360.778C533.774 353.429 527.817 347.471 520.467 347.471C513.118 347.471 507.16 353.429 507.16 360.778C507.16 368.128 513.118 374.086 520.467 374.086Z" fill="#333333"/>
<path d="M690.979 327.332H560.271C557.821 327.332 555.835 325.346 555.835 322.896V125.391C555.835 122.941 557.821 120.955 560.271 120.955H690.979C693.429 120.955 695.415 122.941 695.415 125.391V322.896C695.415 325.346 693.429 327.332 690.979 327.332Z" fill="#28282A"/>
<path d="M560.294 80.6246C560.294 81.1629 560.169 81.5447 559.918 81.7701C559.674 81.9954 559.267 82.1081 558.698 82.1081H556.82V75.5357H558.585C559.142 75.5357 559.549 75.6484 559.806 75.8737C560.068 76.0991 560.2 76.4746 560.2 77.0004V77.5356C560.2 78.0176 560.028 78.3806 559.683 78.6247C560.09 78.8501 560.294 79.235 560.294 79.7796V80.6246ZM559.383 76.9159C559.383 76.678 559.327 76.5059 559.214 76.3995C559.107 76.2931 558.935 76.2399 558.697 76.2399H557.637V78.3149H558.697C558.891 78.3149 559.054 78.2523 559.186 78.1271C559.317 78.0019 559.383 77.836 559.383 77.6295L559.383 76.9159ZM559.477 79.6951C559.477 79.4885 559.414 79.3258 559.289 79.2068C559.164 79.0817 558.998 79.0191 558.791 79.0191H557.637V81.4039H558.782C559.02 81.4039 559.195 81.3507 559.308 81.2443C559.421 81.1316 559.477 80.9563 559.477 80.7185L559.477 79.6951Z" fill="black"/>
<path d="M562.707 80.4462L562.341 82.1081H561.505L563.092 75.5357H564.172L565.73 82.1081H564.895L564.538 80.4462H562.707ZM564.388 79.742L563.618 76.1554L562.857 79.742H564.388Z" fill="black"/>
<path d="M567.647 82.1081H566.886V75.5357H568.219L569.703 81.4133V75.5357H570.463V82.1081H569.121L567.647 76.2305V82.1081Z" fill="black"/>
<path d="M572.783 79.6857V82.1081H571.966V75.5357H572.783V78.3712L574.567 75.5357H575.459L573.647 78.4369L575.572 82.1081H574.633L573.14 79.1505L572.783 79.6857Z" fill="black"/>
<path d="M579.861 82.1081C579.316 82.1081 578.897 81.9766 578.603 81.7137C578.315 81.4446 578.171 81.044 578.171 80.5119V77.1319C578.171 76.5998 578.315 76.2023 578.603 75.9394C578.897 75.6703 579.316 75.5357 579.861 75.5357H581.194V76.2493H579.767C579.535 76.2493 579.348 76.3181 579.204 76.4558C579.06 76.5935 578.988 76.7594 578.988 76.9535V80.6903C578.988 80.8844 579.06 81.0502 579.204 81.1879C579.348 81.3257 579.535 81.3945 579.767 81.3945H581.194V82.1081H579.861Z" fill="black"/>
<path d="M582.734 75.5357H583.561L584.687 81.2818L585.899 75.5357H586.706L585.232 82.1081H584.115L582.734 75.5357Z" fill="black"/>
<path d="M598.984 82.1081H598.223V75.5357H599.556L601.04 81.4133V75.5357H601.8V82.1081H600.458L598.984 76.2305V82.1081Z" fill="black"/>
<path d="M606.646 75.5357V76.2211H604.327V78.3712H606.411V79.0566H604.327V81.4227H606.646V82.1081H603.51V75.5357H606.646Z" fill="black"/>
<path d="M608.966 82.1081H608.083L609.717 78.7092L608.233 75.5357H609.125L610.158 77.7609L611.228 75.5357H612.102L610.58 78.6998L612.195 82.1081H611.275L610.149 79.6387L608.966 82.1081Z" fill="black"/>
<path d="M614.787 82.1081V76.2493H613.294V75.5357H617.097V76.2493H615.604V82.1081H614.787Z" fill="black"/>
<path d="M637.531 78.0708C637.531 78.5778 637.396 78.9533 637.127 79.1975C636.858 79.4353 636.461 79.5542 635.935 79.5542H634.958V82.1081H634.142V75.5357H635.916C636.448 75.5357 636.849 75.6546 637.118 75.8925C637.393 76.1241 637.531 76.4934 637.531 77.0004V78.0708ZM636.714 76.9159C636.714 76.678 636.658 76.5059 636.545 76.3995C636.439 76.2931 636.267 76.2399 636.029 76.2399H634.959V78.85H636.029C636.267 78.85 636.439 78.7968 636.545 78.6904C636.658 78.5777 636.714 78.4025 636.714 78.1646V76.9159Z" fill="black"/>
<path d="M639.832 79.3852V82.1081H639.015V75.5357H640.78C641.312 75.5357 641.713 75.6546 641.982 75.8925C642.258 76.1241 642.395 76.4934 642.395 77.0004V77.9018C642.395 78.6091 642.114 79.0504 641.55 79.2256L642.855 82.1081H641.963L640.752 79.3852H639.832ZM641.578 76.9159C641.578 76.678 641.522 76.5059 641.409 76.3995C641.303 76.2931 641.131 76.2399 640.893 76.2399H639.832V78.681H640.893C641.131 78.681 641.303 78.6278 641.409 78.5214C641.522 78.4087 641.578 78.2335 641.578 77.9956V76.9159Z" fill="black"/>
<path d="M647.522 75.5357V76.2211H645.203V78.3712H647.287V79.0566H645.203V81.4227H647.522V82.1081H644.386V75.5357H647.522Z" fill="black"/>
<path d="M649.006 75.5357H649.833L650.959 81.2818L652.171 75.5357H652.978L651.504 82.1081H650.387L649.006 75.5357Z" fill="black"/>
<path d="M668.419 79.3852V82.1081H667.602V75.5357H669.367C669.899 75.5357 670.3 75.6546 670.569 75.8925C670.844 76.1241 670.982 76.4934 670.982 77.0004V77.9018C670.982 78.6091 670.7 79.0504 670.137 79.2256L671.442 82.1081H670.55L669.339 79.3852H668.419ZM670.165 76.9159C670.165 76.678 670.109 76.5059 669.996 76.3995C669.89 76.2931 669.718 76.2399 669.48 76.2399H668.419V78.681H669.48C669.718 78.681 669.89 78.6278 669.996 78.5214C670.109 78.4087 670.165 78.2335 670.165 77.9956L670.165 76.9159Z" fill="black"/>
<path d="M676.109 75.5357V76.2211H673.79V78.3712H675.874V79.0566H673.79V81.4227H676.109V82.1081H672.973V75.5357H676.109Z" fill="black"/>
<path d="M681.189 80.5119C681.189 81.044 681.042 81.4446 680.748 81.7138C680.46 81.9766 680.044 82.1081 679.499 82.1081H678.166V81.3945H679.593C679.825 81.3945 680.012 81.3257 680.156 81.188C680.3 81.0503 680.372 80.8844 680.372 80.6903V79.7139C680.372 79.5261 680.322 79.3759 680.222 79.2632C680.128 79.1443 679.984 79.0848 679.79 79.0848H679.509C679.045 79.0848 678.679 78.9502 678.41 78.6811C678.141 78.4056 678.006 78.0082 678.006 77.4886V77.1319C678.006 76.5998 678.15 76.2023 678.438 75.9394C678.732 75.6703 679.152 75.5357 679.696 75.5357H681.039V76.2493H679.602C679.371 76.2493 679.183 76.3181 679.039 76.4558C678.895 76.5935 678.823 76.7594 678.823 76.9535V77.667C678.823 77.8611 678.886 78.0238 679.011 78.1553C679.136 78.2805 679.299 78.343 679.499 78.343H679.781C680.225 78.343 680.57 78.4714 680.814 78.728C681.064 78.9846 681.189 79.3727 681.189 79.8922V80.5119Z" fill="black"/>
<path d="M686.232 75.5357V76.2211H683.913V78.3712H685.997V79.0566H683.913V81.4227H686.232V82.1081H683.096V75.5357H686.232Z" fill="black"/>
<path d="M689.312 82.1081V76.2493H687.819V75.5357H691.621V76.2493H690.129V82.1081H689.312Z" fill="black"/>
<path d="M690.683 192.392H660.52V222.556H690.683V192.392Z" fill="#2D2D2D"/>
<path d="M590.73 125.755H560.566V155.918H590.73V125.755Z" fill="#354055"/>
<path d="M624.048 125.755H593.884V155.918H624.048V125.755Z" fill="#354055"/>
<path d="M657.366 125.755H627.202V155.918H657.366V125.755Z" fill="#354055"/>
<path d="M690.683 125.755H660.52V155.918H690.683V125.755Z" fill="#354055"/>
<path d="M590.73 159.074H560.566V189.237H590.73V159.074Z" fill="#354055"/>
<path d="M624.049 159.074H593.885V189.237H624.049V159.074Z" fill="#354055"/>
<path d="M657.365 159.074H627.201V189.237H657.365V159.074Z" fill="#354055"/>
<path d="M690.683 159.074H660.52V189.237H690.683V159.074Z" fill="#354055"/>
<path d="M590.73 192.392H560.566V222.556H590.73V192.392Z" fill="#354055"/>
<path d="M624.049 192.392H593.885V222.556H624.049V192.392Z" fill="#354055"/>
<path d="M657.365 192.392H627.201V222.556H657.365V192.392Z" fill="#354055"/>
<path d="M690.683 192.392H660.52V222.556H690.683V192.392Z" fill="#354055"/>
<path d="M690.683 292.349H660.52V322.512H690.683V292.349Z" fill="#2D2D2D"/>
<path d="M590.73 225.711H560.566V255.875H590.73V225.711Z" fill="#354055"/>
<path d="M624.048 225.711H593.884V255.875H624.048V225.711Z" fill="#354055"/>
<path d="M657.366 225.711H627.202V255.875H657.366V225.711Z" fill="#354055"/>
<path d="M690.683 225.711H660.52V255.875H690.683V225.711Z" fill="#354055"/>
<path d="M590.73 259.03H560.566V289.193H590.73V259.03Z" fill="#354055"/>
<path d="M624.049 259.03H593.885V289.193H624.049V259.03Z" fill="#354055"/>
<path d="M657.365 259.03H627.201V289.193H657.365V259.03Z" fill="#354055"/>
<path d="M690.683 259.03H660.52V289.193H690.683V259.03Z" fill="#354055"/>
<path d="M590.73 292.349H560.566V322.512H590.73V292.349Z" fill="#354055"/>
<path d="M624.049 292.349H593.885V322.512H624.049V292.349Z" fill="#354055"/>
<path d="M657.365 292.349H627.201V322.512H657.365V292.349Z" fill="#354055"/>
<path d="M690.683 292.349H660.52V322.512H690.683V292.349Z" fill="#354055"/>
<path d="M563.518 345.156C562.974 345.156 562.554 345.024 562.26 344.761C561.972 344.492 561.828 344.091 561.828 343.559V340.179C561.828 339.647 561.972 339.25 562.26 338.987C562.554 338.718 562.974 338.583 563.518 338.583H564.851V339.297H563.424C563.193 339.297 563.005 339.366 562.861 339.503C562.717 339.641 562.645 339.807 562.645 340.001V343.738C562.645 343.932 562.717 344.098 562.861 344.236C563.005 344.373 563.193 344.442 563.424 344.442H564.851V345.156H563.518Z" fill="black"/>
<path d="M570.279 343.559C570.279 344.091 570.132 344.492 569.838 344.761C569.55 345.024 569.134 345.156 568.589 345.156H568.213C567.669 345.156 567.25 345.024 566.955 344.761C566.667 344.492 566.523 344.091 566.523 343.559V340.179C566.523 339.647 566.667 339.25 566.955 338.987C567.25 338.718 567.669 338.583 568.213 338.583H568.589C569.134 338.583 569.55 338.718 569.838 338.987C570.132 339.25 570.279 339.647 570.279 340.179V343.559ZM569.462 340.001C569.462 339.807 569.39 339.641 569.246 339.503C569.102 339.366 568.915 339.297 568.683 339.297H568.12C567.888 339.297 567.7 339.366 567.556 339.503C567.412 339.641 567.34 339.807 567.34 340.001V343.738C567.34 343.932 567.412 344.098 567.556 344.235C567.7 344.373 567.888 344.442 568.12 344.442H568.683C568.915 344.442 569.102 344.373 569.246 344.235C569.39 344.098 569.462 343.932 569.462 343.738V340.001Z" fill="black"/>
<path d="M575.162 341.118C575.162 341.625 575.027 342.001 574.758 342.245C574.489 342.483 574.092 342.602 573.566 342.602H572.589V345.156H571.772V338.583H573.547C574.079 338.583 574.48 338.702 574.749 338.94C575.024 339.172 575.162 339.541 575.162 340.048V341.118ZM574.345 339.963C574.345 339.726 574.289 339.553 574.176 339.447C574.069 339.341 573.897 339.287 573.66 339.287H572.589V341.897H573.66C573.897 341.897 574.07 341.844 574.176 341.738C574.289 341.625 574.345 341.45 574.345 341.212V339.963Z" fill="black"/>
<path d="M578.082 345.156V342.104L576.402 338.583H577.303L578.543 341.315L579.782 338.583H580.636L578.927 342.104V345.156H578.082Z" fill="black"/>
<path d="M596.066 345.156C595.521 345.156 595.102 345.025 594.808 344.762C594.52 344.493 594.376 344.092 594.376 343.56V340.18C594.376 339.648 594.52 339.251 594.808 338.988C595.102 338.719 595.521 338.584 596.066 338.584H597.399V339.298H595.972C595.741 339.298 595.553 339.366 595.409 339.504C595.265 339.642 595.193 339.808 595.193 340.002V343.739C595.193 343.933 595.265 344.099 595.409 344.236C595.553 344.374 595.74 344.443 595.972 344.443H597.399V345.156H596.066Z" fill="black"/>
<path d="M600.311 338.584V344.443H602.404V345.156H599.494V338.584H600.311Z" fill="black"/>
<path d="M607.578 338.584V339.269H605.259V341.419H607.344V342.105H605.259V344.471H607.578V345.156H604.442V338.584H607.578Z" fill="black"/>
<path d="M610.161 343.494L609.795 345.156H608.959L610.546 338.584H611.625L613.184 345.156H612.349L611.992 343.494H610.161ZM611.841 342.79L611.072 339.204L610.311 342.79H611.841Z" fill="black"/>
<path d="M615.072 342.433V345.156H614.255V338.584H616.02C616.552 338.584 616.953 338.703 617.222 338.941C617.497 339.172 617.635 339.542 617.635 340.049V340.95C617.635 341.657 617.353 342.099 616.79 342.274L618.095 345.156H617.203L615.992 342.433H615.072ZM616.818 339.964C616.818 339.726 616.762 339.554 616.649 339.448C616.543 339.341 616.37 339.288 616.133 339.288H615.072V341.729H616.133C616.37 341.729 616.543 341.676 616.649 341.57C616.762 341.457 616.818 341.282 616.818 341.044V339.964Z" fill="black"/>
<path d="M632.723 342.434V345.157H631.906V338.584H633.671C634.203 338.584 634.604 338.703 634.873 338.941C635.148 339.173 635.286 339.542 635.286 340.049V340.95C635.286 341.658 635.004 342.099 634.441 342.274L635.746 345.157H634.854L633.643 342.434H632.723ZM634.469 339.965C634.469 339.727 634.413 339.555 634.3 339.448C634.193 339.342 634.021 339.289 633.783 339.289H632.722V341.73H633.783C634.021 341.73 634.193 341.676 634.3 341.57C634.413 341.457 634.469 341.282 634.469 341.044V339.965Z" fill="black"/>
<path d="M637.934 343.495L637.568 345.157H636.732L638.319 338.584H639.399L640.958 345.157H640.122L639.765 343.495H637.934ZM639.615 342.791L638.845 339.204L638.084 342.791H639.615Z" fill="black"/>
<path d="M642.873 345.157H642.113V338.584H643.446L644.93 344.462V338.584H645.69V345.157H644.347L642.873 339.279V345.157Z" fill="black"/>
<path d="M650.732 343.673C650.732 344.212 650.607 344.593 650.357 344.819C650.113 345.044 649.706 345.157 649.136 345.157H647.202V338.584H649.024C649.587 338.584 650.013 338.7 650.301 338.932C650.588 339.157 650.732 339.53 650.732 340.049V343.673ZM649.916 339.965C649.916 339.758 649.853 339.595 649.728 339.476C649.603 339.351 649.437 339.289 649.23 339.289H648.019V344.453H649.221C649.459 344.453 649.634 344.399 649.747 344.293C649.859 344.18 649.915 344.005 649.915 343.767L649.916 339.965Z" fill="black"/>
</g>
<defs>
<clipPath id="clip0_2901_93">
<rect width="705" height="380" fill="white"/>
</clipPath>
</defs>
</svg>
