<svg width="255" height="380" viewBox="0 0 255 380" fill="none" xmlns="http://www.w3.org/2000/svg">
<g clip-path="url(#clip0_2893_519)">
<path d="M0 0H255V380H0V0Z" fill="#E6E6E6"/>
<path d="M175.965 320.2C173.186 320.2 170.908 321.918 170.908 324.026V353.399C170.908 355.501 173.186 357.224 175.965 357.224H237.495C240.274 357.224 242.552 355.501 242.552 353.399V324.026C242.552 321.918 240.274 320.2 237.495 320.2H175.965Z" fill="black"/>
<path d="M107.874 25.8962C107.025 25.8962 106.371 25.6917 105.912 25.2828C105.463 24.8641 105.238 24.2409 105.238 23.4133V18.1554C105.238 17.3278 105.463 16.7095 105.912 16.3005C106.371 15.8818 107.025 15.6725 107.874 15.6725H109.939V16.7825H107.728C107.367 16.7825 107.074 16.8896 106.849 17.1038C106.625 17.318 106.512 17.576 106.512 17.8779V23.6908C106.512 23.9926 106.625 24.2506 106.849 24.4649C107.074 24.6791 107.367 24.7862 107.728 24.7862H109.163V21.6168H107.889V20.5214H110.378V25.8962H107.874Z" fill="black"/>
<path d="M114.202 21.1933V25.8962H112.927V15.6725H114.202V20.1125H117.218V15.6725H118.492V25.8962H117.218V21.1933H114.202Z" fill="black"/>
<path d="M126.533 23.4133C126.533 24.2409 126.304 24.8641 125.845 25.2828C125.396 25.6917 124.746 25.8962 123.897 25.8962H123.311C122.462 25.8962 121.808 25.6917 121.349 25.2828C120.9 24.8641 120.675 24.2409 120.675 23.4133V18.1554C120.675 17.3278 120.9 16.7095 121.349 16.3005C121.808 15.8818 122.462 15.6725 123.311 15.6725H123.897C124.746 15.6725 125.396 15.8818 125.845 16.3005C126.304 16.7095 126.533 17.3278 126.533 18.1554V23.4133ZM125.259 17.8779C125.259 17.576 125.147 17.318 124.922 17.1038C124.698 16.8896 124.405 16.7825 124.043 16.7825H123.165C122.804 16.7825 122.511 16.8896 122.286 17.1038C122.062 17.318 121.949 17.576 121.949 17.8779V23.6908C121.949 23.9926 122.062 24.2506 122.286 24.4649C122.511 24.6791 122.804 24.7862 123.165 24.7862H124.043C124.405 24.7862 124.698 24.6791 124.922 24.4649C125.147 24.2506 125.259 23.9926 125.259 23.6908V17.8779Z" fill="black"/>
<path d="M133.973 23.4133C133.973 24.2409 133.744 24.8641 133.285 25.2828C132.836 25.6917 132.187 25.8962 131.337 25.8962H129.258V24.7862H131.484C131.845 24.7862 132.138 24.6791 132.363 24.4649C132.587 24.2506 132.699 23.9926 132.699 23.6908V22.1718C132.699 21.8797 132.621 21.646 132.465 21.4708C132.319 21.2858 132.094 21.1933 131.791 21.1933H131.352C130.63 21.1933 130.059 20.9839 129.639 20.5652C129.219 20.1368 129.009 19.5185 129.009 18.7104V18.1554C129.009 17.3278 129.234 16.7095 129.683 16.3005C130.142 15.8818 130.796 15.6725 131.645 15.6725H133.739V16.7825H131.499C131.137 16.7825 130.844 16.8896 130.62 17.1038C130.395 17.318 130.283 17.576 130.283 17.8779V18.9879C130.283 19.2897 130.381 19.5429 130.576 19.7474C130.771 19.9421 131.025 20.0395 131.338 20.0395H131.777C132.47 20.0395 133.007 20.2391 133.388 20.6383C133.778 21.0375 133.974 21.6412 133.974 22.4493L133.973 23.4133Z" fill="black"/>
<path d="M138.748 25.8962V16.7825H136.42V15.6725H142.351V16.7825H140.022V25.8962H138.748Z" fill="black"/>
<path d="M149.762 23.4133C149.762 24.2409 149.532 24.8641 149.073 25.2828C148.624 25.6917 147.975 25.8962 147.126 25.8962H145.046V24.7862H147.272C147.633 24.7862 147.926 24.6791 148.151 24.4649C148.375 24.2506 148.488 23.9926 148.488 23.6908V22.1718C148.488 21.8797 148.41 21.646 148.253 21.4708C148.107 21.2858 147.882 21.1933 147.58 21.1933H147.14C146.418 21.1933 145.847 20.9839 145.427 20.5652C145.007 20.1368 144.797 19.5185 144.797 18.7104V18.1554C144.797 17.3278 145.022 16.7095 145.471 16.3005C145.93 15.8818 146.584 15.6725 147.433 15.6725H149.528V16.7825H147.287C146.926 16.7825 146.633 16.8896 146.408 17.1038C146.184 17.318 146.071 17.576 146.071 17.8779V18.9879C146.071 19.2897 146.169 19.5429 146.364 19.7474C146.56 19.9421 146.814 20.0395 147.126 20.0395H147.565C148.258 20.0395 148.795 20.2391 149.176 20.6383C149.566 21.0375 149.762 21.6412 149.762 22.4493V23.4133Z" fill="black"/>
<path d="M218.621 373.057C218.601 373.007 218.573 372.969 218.535 372.942C218.501 372.915 218.458 372.892 218.409 372.875L218.126 372.76V372.53H219.86V372.76L219.313 372.919L220.194 374.993L220.369 375.52H220.41L221.396 372.997L220.879 372.76V372.53H222.3V372.76L222.006 372.942C221.956 372.966 221.913 372.992 221.876 373.019C221.838 373.047 221.81 373.083 221.79 373.127L220.771 375.609L220.365 376.417H220.046L218.621 373.057Z" fill="#999999"/>
<path d="M224.43 376.477C224.153 376.477 223.9 376.43 223.672 376.336C223.443 376.242 223.248 376.108 223.084 375.935C222.923 375.759 222.798 375.547 222.708 375.297C222.622 375.047 222.578 374.768 222.578 374.459C222.578 374.172 222.622 373.905 222.708 373.658C222.798 373.41 222.923 373.195 223.084 373.012C223.248 372.829 223.446 372.686 223.679 372.582C223.912 372.476 224.175 372.423 224.467 372.423C224.785 372.423 225.059 372.478 225.289 372.589C225.522 372.701 225.715 372.849 225.866 373.034C226.02 373.22 226.134 373.435 226.208 373.68C226.282 373.922 226.32 374.177 226.32 374.444C226.32 374.726 226.276 374.99 226.189 375.238C226.103 375.485 225.977 375.701 225.814 375.887C225.653 376.07 225.456 376.215 225.222 376.321C224.989 376.425 224.725 376.477 224.43 376.477ZM224.486 376.128C224.694 376.128 224.867 376.077 225.003 375.976C225.142 375.875 225.251 375.746 225.33 375.59C225.412 375.432 225.469 375.259 225.501 375.071C225.534 374.881 225.55 374.698 225.55 374.522C225.55 374.307 225.529 374.096 225.487 373.888C225.447 373.678 225.381 373.49 225.289 373.324C225.2 373.158 225.084 373.025 224.94 372.923C224.796 372.822 224.621 372.771 224.415 372.771C224.277 372.771 224.154 372.795 224.047 372.842C223.943 372.889 223.851 372.952 223.772 373.031C223.693 373.11 223.626 373.203 223.571 373.309C223.519 373.413 223.476 373.524 223.441 373.643C223.409 373.762 223.385 373.883 223.37 374.007C223.359 374.13 223.353 374.25 223.353 374.366C223.353 374.498 223.361 374.632 223.376 374.771C223.392 374.907 223.417 375.04 223.451 375.171C223.488 375.3 223.535 375.422 223.592 375.539C223.649 375.655 223.72 375.756 223.804 375.843C223.888 375.929 223.986 375.999 224.098 376.05C224.212 376.102 224.34 376.128 224.486 376.128Z" fill="#999999"/>
<path d="M226.702 376.147L227.033 376.009C227.085 375.99 227.135 375.961 227.182 375.924C227.231 375.884 227.27 375.849 227.297 375.816L228.353 374.511L227.319 373.068C227.29 373.023 227.255 372.985 227.215 372.953C227.176 372.918 227.127 372.892 227.07 372.875L226.736 372.76V372.53H228.432V372.76L228.034 372.912L228.614 373.743L228.818 374.11H228.845L229.715 372.949L229.362 372.76V372.53H230.675V372.76L230.344 372.901C230.292 372.921 230.242 372.949 230.195 372.986C230.15 373.023 230.113 373.059 230.084 373.094L229.068 374.348L230.139 375.843C230.172 375.887 230.208 375.927 230.247 375.961C230.289 375.993 230.338 376.018 230.392 376.035L230.716 376.147V376.38H229.02V376.147L229.425 375.998L228.804 375.112L228.6 374.748H228.573L227.665 375.961L228.019 376.146V376.38H226.702L226.702 376.147Z" fill="#999999"/>
<path d="M231.919 376.277C231.855 376.257 231.787 376.228 231.715 376.191C231.645 376.154 231.581 376.107 231.521 376.05C231.462 375.993 231.412 375.926 231.372 375.85C231.335 375.771 231.317 375.68 231.317 375.579C231.317 375.465 231.338 375.366 231.38 375.282C231.425 375.196 231.48 375.123 231.547 375.063C231.614 375.001 231.689 374.952 231.77 374.915C231.852 374.878 231.93 374.851 232.005 374.833V374.807C231.928 374.762 231.851 374.709 231.774 374.647C231.697 374.583 231.628 374.508 231.566 374.421C231.506 374.335 231.457 374.236 231.417 374.124C231.38 374.011 231.361 373.882 231.361 373.739C231.361 373.556 231.397 373.384 231.469 373.223C231.543 373.062 231.648 372.923 231.782 372.804C231.915 372.685 232.076 372.592 232.265 372.526C232.453 372.456 232.663 372.422 232.894 372.422C233.042 372.422 233.184 372.432 233.318 372.451C233.451 372.471 233.58 372.497 233.704 372.529H235.01L234.965 372.985L233.979 372.859V372.883C234.039 372.947 234.092 373.012 234.139 373.076C234.186 373.14 234.226 373.208 234.258 373.28C234.293 373.349 234.319 373.423 234.336 373.503C234.354 373.579 234.363 373.663 234.363 373.755C234.363 373.938 234.328 374.107 234.259 374.263C234.192 374.419 234.094 374.555 233.965 374.671C233.836 374.785 233.677 374.874 233.489 374.938C233.303 375.002 233.09 375.034 232.849 375.034C232.787 375.034 232.724 375.031 232.659 375.026C232.597 375.018 232.538 375.01 232.481 375.002C232.424 374.992 232.37 374.981 232.321 374.968C232.274 374.957 232.234 374.944 232.202 374.931C232.165 374.939 232.128 374.954 232.091 374.976C232.056 374.998 232.024 375.027 231.994 375.061C231.964 375.093 231.939 375.132 231.92 375.176C231.902 375.221 231.893 375.269 231.893 375.321C231.893 375.373 231.902 375.422 231.92 375.469C231.937 375.514 231.961 375.553 231.99 375.588C232.02 375.623 232.053 375.652 232.091 375.677C232.13 375.699 232.171 375.714 232.213 375.722H233.526C233.774 375.722 233.981 375.751 234.147 375.811C234.316 375.87 234.451 375.948 234.553 376.044C234.657 376.141 234.73 376.248 234.772 376.367C234.817 376.483 234.839 376.6 234.839 376.716C234.839 376.931 234.786 377.127 234.679 377.305C234.575 377.486 234.431 377.641 234.248 377.769C234.064 377.9 233.849 378.002 233.601 378.073C233.353 378.145 233.086 378.181 232.801 378.181C232.556 378.181 232.329 378.16 232.121 378.118C231.915 378.076 231.736 378.013 231.585 377.929C231.434 377.847 231.315 377.746 231.228 377.624C231.144 377.503 231.101 377.364 231.101 377.205C231.101 377.077 231.124 376.963 231.168 376.864C231.215 376.765 231.276 376.679 231.351 376.604C231.425 376.533 231.511 376.472 231.607 376.423C231.706 376.373 231.811 376.334 231.92 376.304L231.919 376.277ZM232.868 374.737C232.994 374.737 233.106 374.714 233.202 374.667C233.299 374.62 233.38 374.552 233.444 374.463C233.508 374.374 233.557 374.266 233.589 374.14C233.624 374.011 233.641 373.867 233.641 373.706C233.641 373.55 233.623 373.412 233.585 373.291C233.548 373.169 233.495 373.067 233.426 372.983C233.359 372.899 233.277 372.835 233.18 372.793C233.086 372.749 232.98 372.727 232.864 372.727C232.75 372.727 232.647 372.748 232.555 372.79C232.464 372.832 232.384 372.895 232.317 372.979C232.25 373.06 232.198 373.163 232.161 373.287C232.126 373.408 232.109 373.549 232.109 373.71C232.109 373.873 232.126 374.019 232.161 374.147C232.198 374.274 232.249 374.381 232.313 374.47C232.38 374.557 232.461 374.623 232.555 374.67C232.649 374.715 232.754 374.737 232.868 374.737ZM232.232 376.321C232.185 376.333 232.135 376.356 232.083 376.391C232.031 376.426 231.984 376.472 231.941 376.529C231.899 376.586 231.865 376.654 231.837 376.733C231.81 376.814 231.796 376.907 231.796 377.011C231.796 377.115 231.815 377.208 231.852 377.289C231.889 377.371 231.939 377.441 232.001 377.501C232.065 377.56 232.139 377.609 232.22 377.649C232.302 377.689 232.386 377.721 232.473 377.746C232.56 377.77 232.646 377.787 232.73 377.798C232.817 377.807 232.896 377.812 232.968 377.812C233.122 377.812 233.274 377.796 233.426 377.764C233.579 377.734 233.716 377.684 233.835 377.612C233.956 377.543 234.054 377.453 234.129 377.341C234.203 377.232 234.24 377.1 234.24 376.944C234.24 376.873 234.225 376.8 234.195 376.726C234.168 376.651 234.123 376.585 234.062 376.525C234.002 376.466 233.923 376.418 233.823 376.381C233.727 376.341 233.611 376.321 233.478 376.321L232.232 376.321Z" fill="#999999"/>
<path d="M235.367 376.147L235.869 376.017C235.917 376.005 235.954 375.984 235.981 375.954C236.011 375.922 236.026 375.88 236.026 375.828V371.443C236.026 371.386 236.01 371.341 235.977 371.306C235.945 371.269 235.899 371.241 235.84 371.221L235.349 371.039V370.831L236.729 370.69V375.828C236.729 375.88 236.744 375.922 236.773 375.954C236.805 375.986 236.843 376.007 236.885 376.017L237.361 376.147V376.38H235.367L235.367 376.147Z" fill="#999999"/>
<path d="M238.784 371.688C238.715 371.688 238.649 371.677 238.587 371.655C238.527 371.63 238.474 371.598 238.427 371.558C238.382 371.519 238.346 371.47 238.319 371.414C238.292 371.354 238.278 371.289 238.278 371.217C238.278 371.145 238.292 371.08 238.319 371.02C238.346 370.961 238.382 370.912 238.427 370.872C238.474 370.83 238.527 370.798 238.587 370.775C238.649 370.753 238.715 370.742 238.784 370.742C238.858 370.742 238.928 370.753 238.992 370.775C239.057 370.795 239.111 370.825 239.156 370.865C239.203 370.904 239.239 370.952 239.264 371.009C239.291 371.064 239.305 371.127 239.305 371.198C239.305 371.273 239.291 371.339 239.264 371.399C239.239 371.458 239.203 371.51 239.156 371.554C239.109 371.596 239.053 371.63 238.988 371.655C238.924 371.677 238.856 371.688 238.784 371.688ZM237.817 376.147L238.33 376.017C238.377 376.005 238.416 375.984 238.446 375.954C238.475 375.922 238.49 375.88 238.49 375.828V373.29C238.49 373.233 238.474 373.188 238.442 373.153C238.41 373.116 238.363 373.088 238.301 373.068L237.828 372.904V372.697L239.189 372.478V375.828C239.189 375.879 239.204 375.922 239.234 375.954C239.266 375.986 239.304 376.007 239.346 376.017L239.84 376.147V376.38H237.817L237.817 376.147Z" fill="#999999"/>
<path d="M240.787 372.92H240.166V372.634C240.267 372.614 240.359 372.596 240.441 372.578C240.525 372.561 240.597 372.533 240.656 372.497C240.716 372.457 240.763 372.403 240.798 372.333C240.835 372.264 240.857 372.169 240.865 372.048L240.895 371.532L241.49 371.417V372.541H242.855L242.799 372.919H241.49V375.494C241.49 375.575 241.516 375.645 241.568 375.702C241.62 375.758 241.683 375.805 241.757 375.843C241.834 375.88 241.914 375.907 241.996 375.924C242.077 375.94 242.149 375.948 242.211 375.948C242.254 375.948 242.301 375.944 242.353 375.936C242.407 375.926 242.46 375.916 242.509 375.907C242.559 375.895 242.605 375.881 242.647 375.866C242.691 375.85 242.725 375.838 242.747 375.828H242.844V376.092C242.809 376.114 242.756 376.145 242.684 376.185C242.615 376.224 242.533 376.264 242.439 376.303C242.347 376.343 242.245 376.376 242.134 376.404C242.024 376.433 241.914 376.448 241.803 376.448C241.664 376.448 241.532 376.431 241.408 376.396C241.287 376.361 241.18 376.312 241.088 376.248C240.997 376.184 240.924 376.104 240.869 376.01C240.815 375.914 240.787 375.804 240.787 375.68L240.787 372.92Z" fill="#999999"/>
<path d="M246.506 375.464V375.831C246.421 375.906 246.326 375.981 246.219 376.058C246.115 376.132 246 376.2 245.873 376.262C245.749 376.324 245.616 376.373 245.472 376.41C245.328 376.45 245.175 376.47 245.014 376.47C244.746 376.47 244.505 376.42 244.289 376.321C244.073 376.222 243.89 376.086 243.738 375.913C243.587 375.738 243.471 375.532 243.389 375.297C243.31 375.062 243.27 374.808 243.27 374.533C243.27 374.335 243.294 374.146 243.341 373.966C243.39 373.785 243.46 373.617 243.549 373.461C243.638 373.306 243.745 373.165 243.869 373.038C243.995 372.91 244.134 372.801 244.285 372.712C244.439 372.623 244.604 372.554 244.78 372.504C244.956 372.455 245.139 372.43 245.33 372.43C245.476 372.43 245.605 372.442 245.717 372.467C245.831 372.489 245.93 372.517 246.015 372.549C246.101 372.578 246.175 372.611 246.234 372.645C246.296 372.677 246.351 372.703 246.398 372.723L246.338 373.417H246.2C246.106 373.357 246.012 373.297 245.918 373.235C245.826 373.17 245.73 373.114 245.628 373.064C245.529 373.012 245.422 372.97 245.308 372.938C245.194 372.903 245.066 372.886 244.925 372.886C244.88 372.886 244.832 372.892 244.78 372.904C244.728 372.914 244.676 372.93 244.624 372.952C244.572 372.974 244.523 373 244.479 373.03C244.434 373.06 244.396 373.093 244.363 373.13C244.324 373.175 244.283 373.23 244.241 373.297C244.201 373.361 244.164 373.443 244.129 373.542C244.097 373.638 244.07 373.752 244.047 373.883C244.028 374.014 244.018 374.168 244.018 374.343C244.018 374.595 244.045 374.82 244.099 375.018C244.154 375.216 244.236 375.384 244.345 375.523C244.454 375.661 244.589 375.767 244.75 375.842C244.912 375.913 245.099 375.949 245.312 375.949C245.431 375.949 245.544 375.932 245.65 375.897C245.76 375.863 245.861 375.822 245.955 375.775C246.05 375.725 246.135 375.672 246.212 375.615C246.291 375.558 246.359 375.508 246.417 375.463L246.506 375.464Z" fill="#999999"/>
<path d="M246.97 376.147L247.402 376.017C247.454 376.001 247.492 375.979 247.517 375.95C247.544 375.92 247.558 375.879 247.558 375.828V371.443C247.558 371.386 247.542 371.341 247.51 371.306C247.477 371.271 247.432 371.243 247.372 371.221L246.944 371.039V370.831L248.257 370.69V372.875V373.075C248.366 372.932 248.473 372.818 248.577 372.734C248.684 372.648 248.788 372.582 248.89 372.537C248.994 372.49 249.095 372.46 249.195 372.445C249.296 372.429 249.397 372.421 249.496 372.421C249.667 372.421 249.827 372.447 249.976 372.499C250.127 372.548 250.258 372.626 250.37 372.732C250.484 372.839 250.573 372.976 250.637 373.144C250.702 373.312 250.734 373.512 250.734 373.745V375.807C250.734 375.869 250.749 375.916 250.779 375.948C250.809 375.98 250.845 376.003 250.887 376.015L251.281 376.145V376.379H249.488V376.145L249.883 376.015C249.925 376.003 249.961 375.981 249.991 375.948C250.02 375.916 250.035 375.869 250.035 375.807V374.034C250.035 373.861 250.024 373.708 250.002 373.574C249.982 373.438 249.941 373.323 249.879 373.229C249.817 373.133 249.73 373.06 249.619 373.01C249.51 372.961 249.366 372.936 249.187 372.936C249.106 372.936 249.022 372.942 248.938 372.954C248.854 372.966 248.771 372.987 248.689 373.017C248.607 373.047 248.529 373.086 248.455 373.136C248.381 373.185 248.315 373.246 248.258 373.317V375.825C248.258 375.877 248.271 375.918 248.299 375.947C248.329 375.977 248.367 375.999 248.414 376.014L248.764 376.144V376.378H246.971L246.97 376.147Z" fill="#999999"/>
<path d="M175.605 53.1795C175.605 53.7428 175.455 54.1601 175.155 54.4313C174.855 54.6956 174.412 54.8278 173.827 54.8278H172.739V57.6654H171.829V50.3627H173.806C174.398 50.3627 174.845 50.4949 175.145 50.7592C175.451 51.0165 175.605 51.4268 175.605 51.9902V53.1795ZM174.695 51.8963C174.695 51.632 174.632 51.4407 174.506 51.3225C174.388 51.2043 174.196 51.1452 173.931 51.1452H172.739V54.0454H173.931C174.196 54.0454 174.388 53.9862 174.506 53.868C174.632 53.7428 174.695 53.5481 174.695 53.2838V51.8963Z" fill="black"/>
<path d="M181.358 55.8919C181.358 56.483 181.195 56.9281 180.867 57.2272C180.546 57.5193 180.082 57.6654 179.476 57.6654H179.214C178.607 57.6654 178.14 57.5193 177.812 57.2272C177.492 56.9281 177.331 56.483 177.331 55.8919V50.3627H178.241V56.0901C178.241 56.3057 178.322 56.49 178.482 56.643C178.642 56.796 178.852 56.8725 179.11 56.8725H179.58C179.838 56.8725 180.048 56.796 180.208 56.643C180.368 56.49 180.448 56.3057 180.448 56.0901V50.3627H181.359L181.358 55.8919Z" fill="black"/>
<path d="M183.807 54.64V57.6654H182.897V50.3627H184.864C185.456 50.3627 185.903 50.4949 186.202 50.7592C186.509 51.0165 186.663 51.4268 186.663 51.9902V52.9917C186.663 53.7776 186.349 54.2679 185.721 54.4626L187.175 57.6654H186.181L184.832 54.64H183.807ZM185.753 51.8963C185.753 51.632 185.69 51.4407 185.564 51.3225C185.446 51.2043 185.254 51.1452 184.989 51.1452H183.807V53.8576H184.989C185.254 53.8576 185.446 53.7984 185.564 53.6802C185.69 53.555 185.753 53.3603 185.753 53.096V51.8963Z" fill="black"/>
<path d="M190.669 57.6654C190.063 57.6654 189.596 57.5193 189.268 57.2272C188.947 56.9281 188.787 56.483 188.787 55.8919V52.1362C188.787 51.5451 188.947 51.1034 189.268 50.8113C189.596 50.5123 190.063 50.3627 190.669 50.3627H192.144V51.1556H190.565C190.307 51.1556 190.098 51.2321 189.937 51.3851C189.777 51.5381 189.697 51.7224 189.697 51.938V56.0901C189.697 56.3057 189.777 56.49 189.937 56.643C190.098 56.796 190.307 56.8725 190.565 56.8725H191.59V54.6087H190.68V53.8263H192.458V57.6654H190.669Z" fill="black"/>
<path d="M198.013 50.3627V51.1243H195.43V53.5133H197.752V54.2749H195.43V56.9038H198.013V57.6654H194.52V50.3627H198.013Z" fill="black"/>
<path d="M105.783 250.853C105.511 250.978 105.177 251.041 104.779 251.041H104.361C103.754 251.041 103.287 250.895 102.959 250.603C102.638 250.304 102.478 249.859 102.478 249.267V245.512C102.478 244.921 102.638 244.479 102.959 244.187C103.287 243.888 103.754 243.738 104.361 243.738H104.779C105.386 243.738 105.849 243.888 106.17 244.187C106.498 244.479 106.662 244.921 106.662 245.512V249.267C106.662 249.678 106.582 250.022 106.421 250.3L107.185 251.062L106.589 251.656L105.783 250.853ZM105.752 245.314C105.752 245.098 105.672 244.914 105.511 244.761C105.351 244.608 105.142 244.531 104.884 244.531H104.256C103.998 244.531 103.789 244.608 103.628 244.761C103.468 244.914 103.388 245.098 103.388 245.314V249.466C103.388 249.681 103.468 249.866 103.628 250.019C103.789 250.172 103.998 250.248 104.256 250.248H104.884C105.142 250.248 105.351 250.172 105.511 250.019C105.672 249.866 105.752 249.681 105.752 249.466V245.314Z" fill="black"/>
<path d="M112.217 249.267C112.217 249.859 112.053 250.304 111.725 250.603C111.405 250.895 110.941 251.041 110.334 251.041H110.073C109.466 251.041 108.999 250.895 108.671 250.603C108.35 250.304 108.19 249.859 108.19 249.267V243.738H109.1V249.466C109.1 249.681 109.18 249.866 109.34 250.019C109.501 250.172 109.71 250.248 109.968 250.248H110.439C110.697 250.248 110.906 250.172 111.066 250.019C111.226 249.866 111.307 249.681 111.307 249.466V243.738H112.217L112.217 249.267Z" fill="black"/>
<path d="M114.833 249.194L114.425 251.041H113.494L115.261 243.738H116.464L118.201 251.041H117.27L116.872 249.194H114.833ZM116.705 248.412L115.847 244.427L115 248.412H116.705Z" fill="black"/>
<path d="M120.335 251.041H119.488V243.738H120.973L122.626 250.269V243.738H123.473V251.041H121.978L120.335 244.51V251.041Z" fill="black"/>
<path d="M126.664 251.041V244.531H125.001V243.738H129.238V244.531H127.574V251.041H126.664Z" fill="black"/>
<path d="M132.303 250.279V244.5H131.362V243.738H134.155V244.5H133.213V250.279H134.155V251.041H131.362V250.279H132.303Z" fill="black"/>
<path d="M137.942 251.041V244.531H136.279V243.738H140.515V244.531H138.852V251.041H137.942Z" fill="black"/>
<path d="M143.549 251.041V247.65L141.677 243.738H142.681L144.062 246.774L145.443 243.738H146.395L144.491 247.65V251.041H143.549Z" fill="black"/>
<path d="M100.831 315.281C100.831 315.873 100.668 316.318 100.34 316.617C100.019 316.909 99.5553 317.055 98.9486 317.055H97.4632V316.262H99.0532C99.3112 316.262 99.5204 316.186 99.6808 316.033C99.8412 315.88 99.9214 315.695 99.9214 315.48V314.395C99.9214 314.186 99.8656 314.019 99.754 313.894C99.6494 313.762 99.489 313.696 99.2729 313.696H98.959C98.443 313.696 98.0351 313.546 97.7352 313.247C97.4353 312.941 97.2854 312.5 97.2854 311.922V311.526C97.2854 310.935 97.4458 310.493 97.7666 310.201C98.0943 309.902 98.5616 309.752 99.1683 309.752H100.664V310.545H99.0637C98.8056 310.545 98.5964 310.622 98.436 310.775C98.2756 310.928 98.1954 311.112 98.1954 311.328V312.12C98.1954 312.336 98.2652 312.517 98.4046 312.663C98.5441 312.802 98.7254 312.872 98.9486 312.872H99.2624C99.7575 312.872 100.141 313.014 100.413 313.299C100.692 313.585 100.831 314.016 100.831 314.593V315.281Z" fill="black"/>
<path d="M106.596 312.569C106.596 313.132 106.446 313.55 106.146 313.821C105.846 314.085 105.403 314.217 104.818 314.217H103.73V317.055H102.82V309.752H104.797C105.389 309.752 105.836 309.884 106.136 310.149C106.442 310.406 106.596 310.816 106.596 311.38V312.569ZM105.686 311.286C105.686 311.022 105.623 310.83 105.497 310.712C105.379 310.594 105.187 310.535 104.922 310.535H103.73V313.435H104.922C105.187 313.435 105.379 313.376 105.497 313.257C105.623 313.132 105.686 312.937 105.686 312.673V311.286Z" fill="black"/>
<path d="M109.326 315.208L108.919 317.055H107.988L109.755 309.752H110.958L112.695 317.055H111.764L111.366 315.208H109.326ZM111.199 314.426L110.341 310.441L109.494 314.426H111.199Z" fill="black"/>
<path d="M115.959 314.092L115.3 317.055H114.045L113.689 309.752H114.463L114.777 316.272L115.645 312.83H116.294L117.183 316.272L117.507 309.752H118.229L117.873 317.055H116.555L115.959 314.092Z" fill="black"/>
<path d="M120.468 317.055H119.621V309.752H121.106L122.759 316.283V309.752H123.606V317.055H122.11L120.468 310.524V317.055Z" fill="black"/>
<path d="M131.714 314.03V317.055H130.804V309.752H132.77C133.363 309.752 133.81 309.884 134.109 310.149C134.416 310.406 134.57 310.816 134.57 311.38V312.381C134.57 313.167 134.256 313.657 133.628 313.852L135.082 317.055H134.088L132.739 314.03H131.714ZM133.66 311.286C133.66 311.022 133.597 310.83 133.471 310.712C133.353 310.594 133.161 310.535 132.896 310.535H131.714V313.247H132.896C133.161 313.247 133.353 313.188 133.471 313.07C133.597 312.944 133.66 312.75 133.66 312.485V311.286Z" fill="black"/>
<path d="M137.52 315.208L137.112 317.055H136.181L137.949 309.752H139.152L140.888 317.055H139.957L139.56 315.208H137.52ZM139.392 314.426L138.535 310.441L137.687 314.426H139.392Z" fill="black"/>
<path d="M143.713 317.055V310.545H142.05V309.752H146.286V310.545H144.623V317.055H143.713Z" fill="black"/>
<path d="M151.559 309.752V310.514H148.975V312.903H151.298V313.664H148.975V316.293H151.559V317.055H148.065V309.752H151.559Z" fill="black"/>
<path d="M181.879 308.242V301.732H180.216V300.939H184.452V301.732H182.789V308.242H181.879Z" fill="black"/>
<path d="M186.796 305.217V308.242H185.886V300.939H187.852C188.445 300.939 188.891 301.071 189.191 301.336C189.498 301.593 189.651 302.003 189.651 302.567V303.568C189.651 304.354 189.338 304.844 188.71 305.039L190.164 308.242H189.17L187.821 305.217H186.796ZM188.741 302.473C188.741 302.208 188.679 302.017 188.553 301.899C188.435 301.781 188.243 301.722 187.978 301.722H186.796V304.434H187.978C188.243 304.434 188.435 304.375 188.553 304.257C188.679 304.131 188.741 303.937 188.741 303.672V302.473Z" fill="black"/>
<path d="M193.156 307.48V301.701H192.215V300.939H195.008V301.701H194.066V307.48H195.008V308.242H192.215V307.48H193.156Z" fill="black"/>
<path d="M199.674 305.79H198.805L197.78 301.69V308.242H196.985V300.939H198.439L199.276 304.674L200.123 300.939H201.536V308.242H200.72V301.69L199.674 305.79Z" fill="black"/>
<path d="M171.98 114.74C171.98 115.331 171.816 115.776 171.488 116.075C171.168 116.368 170.704 116.514 170.097 116.514H168.999V115.721H170.202C170.46 115.721 170.669 115.644 170.829 115.491C170.99 115.338 171.07 115.154 171.07 114.938V109.993H169.386V109.211H171.98V114.74Z" fill="black"/>
<path d="M175.694 115.752V109.973H174.753V109.211H177.546V109.973H176.604V115.752H177.546V116.514H174.753V115.752H175.694Z" fill="black"/>
<path d="M181.333 116.514V110.004H179.67V109.211H183.906V110.004H182.243V116.514H181.333Z" fill="black"/>
<path d="M186.972 116.514V110.004H185.308V109.211H189.545V110.004H187.882V116.514H186.972Z" fill="black"/>
<path d="M194.817 109.211V109.973H192.234V112.362H194.556V113.123H192.234V115.752H194.817V116.514H191.323V109.211H194.817Z" fill="black"/>
<path d="M197.527 113.488V116.514H196.617V109.211H198.584C199.176 109.211 199.623 109.343 199.923 109.607C200.229 109.865 200.383 110.275 200.383 110.838V111.84C200.383 112.626 200.069 113.116 199.441 113.311L200.895 116.514H199.902L198.552 113.488H197.527ZM199.473 110.744C199.473 110.48 199.41 110.289 199.285 110.171C199.166 110.052 198.974 109.993 198.709 109.993H197.527V112.706H198.709C198.974 112.706 199.166 112.647 199.285 112.528C199.41 112.403 199.473 112.209 199.473 111.944V110.744Z" fill="black"/>
<path d="M106.509 51.8618C106.509 52.4252 106.359 52.8425 106.059 53.1137C105.76 53.378 105.317 53.5101 104.731 53.5101H103.643V56.3477H102.733V49.0451H104.71C105.303 49.0451 105.749 49.1772 106.049 49.4415C106.356 49.6989 106.509 50.1092 106.509 50.6725V51.8618ZM105.599 50.5787C105.599 50.3144 105.536 50.1231 105.411 50.0049C105.292 49.8866 105.101 49.8275 104.836 49.8275H103.643V52.7277H104.836C105.101 52.7277 105.292 52.6686 105.411 52.5504C105.536 52.4252 105.599 52.2305 105.599 51.9662V50.5787Z" fill="black"/>
<path d="M112.347 54.5742C112.347 55.1654 112.183 55.6105 111.855 55.9096C111.534 56.2017 111.071 56.3477 110.464 56.3477H110.045C109.439 56.3477 108.972 56.2017 108.644 55.9096C108.323 55.6105 108.163 55.1654 108.163 54.5742V50.8186C108.163 50.2274 108.323 49.7858 108.644 49.4937C108.972 49.1946 109.439 49.0451 110.045 49.0451H110.464C111.071 49.0451 111.534 49.1946 111.855 49.4937C112.183 49.7858 112.347 50.2274 112.347 50.8186V54.5742ZM111.437 50.6204C111.437 50.4048 111.357 50.2205 111.196 50.0675C111.036 49.9145 110.827 49.838 110.569 49.838H109.941C109.683 49.838 109.474 49.9145 109.313 50.0675C109.153 50.2205 109.073 50.4048 109.073 50.6204V54.7725C109.073 54.9881 109.153 55.1724 109.313 55.3254C109.474 55.4784 109.683 55.5549 109.941 55.5549H110.569C110.827 55.5549 111.036 55.4784 111.196 55.3254C111.357 55.1724 111.437 54.9881 111.437 54.7725V50.6204Z" fill="black"/>
<path d="M117.661 54.5742C117.661 55.1654 117.497 55.6105 117.17 55.9096C116.849 56.2017 116.385 56.3477 115.778 56.3477H114.293V55.5549H115.883C116.141 55.5549 116.35 55.4784 116.511 55.3254C116.671 55.1724 116.751 54.9881 116.751 54.7725V53.6875C116.751 53.4789 116.695 53.3119 116.584 53.1867C116.479 53.0546 116.319 52.9885 116.103 52.9885H115.789C115.273 52.9885 114.865 52.839 114.565 52.5399C114.265 52.2339 114.115 51.7923 114.115 51.215V50.8186C114.115 50.2274 114.276 49.7858 114.596 49.4937C114.924 49.1946 115.391 49.0451 115.998 49.0451H117.494V49.838H115.893C115.635 49.838 115.426 49.9145 115.266 50.0675C115.106 50.2205 115.025 50.4048 115.025 50.6204V51.4132C115.025 51.6288 115.095 51.8097 115.234 51.9557C115.374 52.0948 115.555 52.1644 115.778 52.1644H116.092C116.587 52.1644 116.971 52.307 117.243 52.5921C117.522 52.8773 117.661 53.3085 117.661 53.8857L117.661 54.5742Z" fill="black"/>
<path d="M121.072 55.5862V49.8067H120.131V49.0451H122.924V49.8067H121.982V55.5862H122.924V56.3477H120.131V55.5862H121.072Z" fill="black"/>
<path d="M126.711 56.3477V49.838H125.048V49.0451H129.284V49.838H127.621V56.3477H126.711Z" fill="black"/>
<path d="M132.349 55.5862V49.8067H131.408V49.0451H134.201V49.8067H133.259V55.5862H134.201V56.3477H131.408V55.5862H132.349Z" fill="black"/>
<path d="M140.541 54.5742C140.541 55.1654 140.377 55.6105 140.049 55.9096C139.728 56.2017 139.264 56.3477 138.658 56.3477H138.239C137.633 56.3477 137.165 56.2017 136.838 55.9096C136.517 55.6105 136.356 55.1654 136.356 54.5742V50.8186C136.356 50.2274 136.517 49.7858 136.838 49.4937C137.165 49.1946 137.633 49.0451 138.239 49.0451H138.658C139.264 49.0451 139.728 49.1946 140.049 49.4937C140.377 49.7858 140.541 50.2274 140.541 50.8186V54.5742ZM139.63 50.6204C139.63 50.4048 139.55 50.2205 139.39 50.0675C139.23 49.9145 139.021 49.838 138.762 49.838H138.135C137.877 49.838 137.668 49.9145 137.507 50.0675C137.347 50.2205 137.267 50.4048 137.267 50.6204V54.7725C137.267 54.9881 137.347 55.1724 137.507 55.3254C137.667 55.4784 137.877 55.5549 138.135 55.5549H138.762C139.02 55.5549 139.23 55.4784 139.39 55.3254C139.55 55.1724 139.63 54.9881 139.63 54.7725V50.6204Z" fill="black"/>
<path d="M142.937 56.3477H142.089V49.0451H143.575L145.227 55.5758V49.0451H146.075V56.3477H144.579L142.937 49.8171V56.3477Z" fill="black"/>
<path d="M114.885 116.811C114.885 117.374 114.735 117.791 114.435 118.063C114.135 118.327 113.693 118.459 113.107 118.459H112.019V121.297H111.109V113.994H113.086C113.679 113.994 114.125 114.126 114.425 114.391C114.732 114.648 114.885 115.058 114.885 115.622V116.811ZM113.975 115.528C113.975 115.263 113.912 115.072 113.787 114.954C113.668 114.836 113.476 114.777 113.211 114.777H112.019V117.677H113.211C113.476 117.677 113.668 117.618 113.787 117.499C113.912 117.374 113.975 117.179 113.975 116.915V115.528Z" fill="black"/>
<path d="M118.17 120.535V114.756H117.229V113.994H120.022V114.756H119.08V120.535H120.022V121.297H117.229V120.535H118.17Z" fill="black"/>
<path d="M123.809 121.297V114.787H122.146V113.994H126.382V114.787H124.719V121.297H123.809Z" fill="black"/>
<path d="M130.107 121.297C129.5 121.297 129.033 121.151 128.705 120.859C128.384 120.559 128.224 120.114 128.224 119.523V115.768C128.224 115.176 128.384 114.735 128.705 114.443C129.033 114.144 129.5 113.994 130.107 113.994H131.592V114.787H130.002C129.744 114.787 129.535 114.863 129.375 115.016C129.214 115.169 129.134 115.354 129.134 115.569V119.721C129.134 119.937 129.214 120.121 129.375 120.274C129.535 120.427 129.744 120.504 130.002 120.504H131.592V121.297H130.107Z" fill="black"/>
<path d="M134.469 117.938V121.297H133.559V113.994H134.469V117.166H136.624V113.994H137.534V121.297H136.624V117.938H134.469Z" fill="black"/>
<path d="M89.8042 339.38C103.933 339.38 104.09 339.38 104.09 339.38" stroke="black" stroke-width="0.52928"/>
<path d="M47.8462 339.359C62.0521 339.359 62.21 339.359 62.21 339.359" stroke="black" stroke-width="0.530733"/>
<path d="M89.8044 273.677C103.933 273.677 104.09 273.677 104.09 273.677" stroke="black" stroke-width="0.52928"/>
<path d="M47.8462 273.656C62.0521 273.656 62.21 273.656 62.21 273.656" stroke="black" stroke-width="0.530733"/>
<path d="M89.8042 208.725C103.933 208.725 104.09 208.725 104.09 208.725" stroke="black" stroke-width="0.52928"/>
<path d="M47.8462 208.704C62.0521 208.704 62.21 208.704 62.21 208.704" stroke="black" stroke-width="0.530733"/>
<path d="M89.8042 143.832C103.933 143.832 104.09 143.832 104.09 143.832" stroke="black" stroke-width="0.52928"/>
<path d="M47.8462 143.811C62.0521 143.811 62.21 143.811 62.21 143.811" stroke="black" stroke-width="0.530733"/>
<path d="M89.8044 78.8832C103.933 78.8832 104.09 78.8832 104.09 78.8832" stroke="black" stroke-width="0.52928"/>
<path d="M47.8462 78.8625C62.0521 78.8625 62.21 78.8625 62.21 78.8625" stroke="black" stroke-width="0.530733"/>
<path d="M205.518 304.717C210 304.717 210.05 304.717 210.05 304.717" stroke="black" stroke-width="0.52928"/>
<path d="M199.913 76.8102C213.033 76.8102 213.179 76.8102 213.179 76.8102" stroke="black" stroke-width="0.52928"/>
<path d="M199.913 135.183C213.131 135.183 213.278 135.183 213.278 135.183" stroke="black" stroke-width="0.52928"/>
<path d="M109.433 178.944V185.453H111.766V186.246H108.523V178.944H109.433Z" fill="black"/>
<path d="M117.53 178.944V179.705H114.946V182.094H117.269V182.856H114.946V185.485H117.53V186.246H114.036V178.944H117.53Z" fill="black"/>
<path d="M120.271 186.246H119.424V178.944H120.909L122.562 185.474V178.944H123.409V186.246H121.914L120.271 179.716V186.246Z" fill="black"/>
<path d="M127.103 186.246C126.496 186.246 126.029 186.1 125.701 185.808C125.38 185.509 125.22 185.064 125.22 184.473V180.717C125.22 180.126 125.38 179.684 125.701 179.392C126.029 179.093 126.496 178.944 127.103 178.944H128.577V179.736H126.998C126.74 179.736 126.531 179.813 126.37 179.966C126.21 180.119 126.13 180.303 126.13 180.519V184.671C126.13 184.887 126.21 185.071 126.37 185.224C126.531 185.377 126.74 185.453 126.998 185.453H128.023V183.19H127.113V182.407H128.891V186.246L127.103 186.246Z" fill="black"/>
<path d="M132.239 186.246V179.736H130.576V178.944H134.813V179.736H133.149V186.246H132.239Z" fill="black"/>
<path d="M137.261 182.887V186.246H136.351V178.944H137.261V182.115H139.416V178.944H140.326V186.246H139.416V182.887H137.261Z" fill="black"/>
</g>
<defs>
<clipPath id="clip0_2893_519">
<rect width="255" height="380" fill="white"/>
</clipPath>
</defs>
</svg>
