<svg width="300" height="380" viewBox="0 0 300 380" fill="none" xmlns="http://www.w3.org/2000/svg">
<g clip-path="url(#clip0_2893_165)">
<path d="M0 0H300V380H0V0Z" fill="#E6E6E6"/>
<path d="M264.585 373.057C264.565 373.007 264.536 372.969 264.499 372.942C264.465 372.915 264.423 372.892 264.373 372.875L264.092 372.76V372.53H265.818V372.76L265.273 372.919L266.151 374.993L266.325 375.52H266.366L267.348 372.997L266.833 372.76V372.53H268.248V372.76L267.955 372.942C267.906 372.966 267.862 372.992 267.825 373.019C267.788 373.047 267.76 373.083 267.74 373.127L266.725 375.609L266.322 376.417H266.003L264.585 373.057Z" fill="#999999"/>
<path d="M270.37 376.477C270.093 376.477 269.841 376.43 269.614 376.336C269.387 376.242 269.192 376.108 269.029 375.935C268.868 375.759 268.744 375.547 268.655 375.297C268.568 375.047 268.525 374.768 268.525 374.459C268.525 374.172 268.568 373.905 268.655 373.658C268.744 373.41 268.868 373.195 269.029 373.012C269.192 372.829 269.389 372.686 269.621 372.582C269.854 372.476 270.115 372.423 270.407 372.423C270.723 372.423 270.996 372.478 271.225 372.589C271.457 372.701 271.649 372.849 271.799 373.034C271.952 373.22 272.066 373.435 272.14 373.68C272.214 373.922 272.251 374.177 272.251 374.444C272.251 374.726 272.208 374.99 272.121 375.238C272.035 375.485 271.91 375.701 271.747 375.887C271.587 376.07 271.391 376.215 271.158 376.321C270.926 376.425 270.663 376.477 270.37 376.477ZM270.425 376.128C270.632 376.128 270.804 376.077 270.94 375.976C271.078 375.875 271.187 375.746 271.266 375.59C271.347 375.432 271.404 375.259 271.436 375.071C271.468 374.881 271.484 374.698 271.484 374.522C271.484 374.307 271.463 374.096 271.421 373.888C271.382 373.678 271.316 373.49 271.225 373.324C271.136 373.158 271.02 373.025 270.877 372.923C270.734 372.822 270.56 372.771 270.355 372.771C270.217 372.771 270.094 372.795 269.988 372.842C269.884 372.889 269.793 372.952 269.714 373.031C269.635 373.11 269.568 373.203 269.514 373.309C269.462 373.413 269.419 373.524 269.384 373.643C269.352 373.762 269.329 373.883 269.314 374.007C269.302 374.13 269.296 374.25 269.296 374.366C269.296 374.498 269.304 374.632 269.32 374.771C269.336 374.907 269.361 375.04 269.394 375.171C269.431 375.3 269.478 375.422 269.535 375.539C269.592 375.655 269.662 375.756 269.746 375.843C269.83 375.929 269.928 375.999 270.039 376.05C270.152 376.102 270.279 376.128 270.425 376.128Z" fill="#999999"/>
<path d="M272.632 376.147L272.961 376.009C273.013 375.99 273.063 375.961 273.11 375.924C273.159 375.884 273.197 375.849 273.225 375.816L274.276 374.511L273.247 373.068C273.217 373.023 273.182 372.985 273.143 372.953C273.104 372.918 273.055 372.892 272.999 372.875L272.665 372.76V372.53H274.354V372.76L273.958 372.912L274.536 373.743L274.739 374.11H274.766L275.633 372.949L275.281 372.76V372.53H276.588V372.76L276.259 372.901C276.207 372.921 276.157 372.949 276.11 372.986C276.066 373.023 276.029 373.059 275.999 373.094L274.988 374.348L276.055 375.843C276.087 375.887 276.123 375.927 276.162 375.961C276.204 375.993 276.253 376.018 276.307 376.035L276.629 376.147V376.38H274.94V376.147L275.344 375.998L274.725 375.112L274.522 374.748H274.495L273.591 375.961L273.943 376.146V376.38H272.632L272.632 376.147Z" fill="#999999"/>
<path d="M277.827 376.277C277.763 376.257 277.695 376.228 277.623 376.191C277.554 376.154 277.49 376.107 277.431 376.05C277.372 375.993 277.322 375.926 277.283 375.85C277.246 375.771 277.227 375.68 277.227 375.579C277.227 375.465 277.248 375.366 277.29 375.282C277.335 375.196 277.39 375.123 277.457 375.063C277.523 375.001 277.597 374.952 277.679 374.915C277.76 374.878 277.838 374.851 277.912 374.833V374.807C277.836 374.762 277.759 374.709 277.682 374.647C277.606 374.583 277.537 374.508 277.475 374.421C277.416 374.335 277.367 374.236 277.327 374.124C277.29 374.011 277.271 373.882 277.271 373.739C277.271 373.556 277.307 373.384 277.379 373.223C277.453 373.062 277.557 372.923 277.69 372.804C277.823 372.685 277.984 372.592 278.172 372.526C278.359 372.456 278.568 372.422 278.797 372.422C278.946 372.422 279.086 372.432 279.22 372.451C279.353 372.471 279.481 372.497 279.605 372.529H280.905L280.86 372.985L279.879 372.859V372.883C279.938 372.947 279.991 373.012 280.038 373.076C280.085 373.14 280.124 373.208 280.156 373.28C280.191 373.349 280.217 373.423 280.234 373.503C280.252 373.579 280.261 373.663 280.261 373.755C280.261 373.938 280.226 374.107 280.157 374.263C280.09 374.419 279.993 374.555 279.864 374.671C279.736 374.785 279.578 374.874 279.39 374.938C279.205 375.002 278.993 375.034 278.753 375.034C278.691 375.034 278.628 375.031 278.564 375.026C278.502 375.018 278.443 375.01 278.386 375.002C278.33 374.992 278.277 374.981 278.227 374.968C278.18 374.957 278.141 374.944 278.109 374.931C278.072 374.939 278.035 374.954 277.998 374.976C277.963 374.998 277.931 375.027 277.902 375.061C277.872 375.093 277.847 375.132 277.827 375.176C277.81 375.221 277.801 375.269 277.801 375.321C277.801 375.373 277.81 375.422 277.827 375.469C277.845 375.514 277.869 375.553 277.898 375.588C277.927 375.623 277.961 375.652 277.998 375.677C278.037 375.699 278.078 375.714 278.12 375.722H279.428C279.674 375.722 279.881 375.751 280.046 375.811C280.214 375.87 280.349 375.948 280.45 376.044C280.553 376.141 280.626 376.248 280.668 376.367C280.713 376.483 280.735 376.6 280.735 376.716C280.735 376.931 280.682 377.127 280.576 377.305C280.472 377.486 280.329 377.641 280.146 377.769C279.963 377.9 279.749 378.002 279.502 378.073C279.255 378.145 278.989 378.181 278.705 378.181C278.461 378.181 278.235 378.16 278.028 378.118C277.823 378.076 277.645 378.013 277.494 377.929C277.344 377.847 277.225 377.746 277.139 377.624C277.055 377.503 277.013 377.364 277.013 377.205C277.013 377.077 277.035 376.963 277.079 376.864C277.126 376.765 277.187 376.679 277.261 376.604C277.335 376.533 277.42 376.472 277.516 376.423C277.615 376.373 277.719 376.334 277.828 376.304L277.827 376.277ZM278.772 374.737C278.898 374.737 279.009 374.714 279.105 374.667C279.201 374.62 279.281 374.552 279.346 374.463C279.41 374.374 279.458 374.266 279.49 374.14C279.525 374.011 279.542 373.867 279.542 373.706C279.542 373.55 279.523 373.412 279.486 373.291C279.449 373.169 279.396 373.067 279.327 372.983C279.261 372.899 279.179 372.835 279.083 372.793C278.989 372.749 278.884 372.727 278.768 372.727C278.654 372.727 278.552 372.748 278.461 372.79C278.369 372.832 278.29 372.895 278.223 372.979C278.157 373.06 278.105 373.163 278.068 373.287C278.033 373.408 278.016 373.549 278.016 373.71C278.016 373.873 278.033 374.019 278.068 374.147C278.105 374.274 278.155 374.381 278.22 374.47C278.286 374.557 278.367 374.623 278.46 374.67C278.554 374.715 278.658 374.737 278.772 374.737ZM278.138 376.321C278.091 376.333 278.042 376.356 277.99 376.391C277.938 376.426 277.891 376.472 277.849 376.529C277.807 376.586 277.773 376.654 277.746 376.733C277.718 376.814 277.705 376.907 277.705 377.011C277.705 377.115 277.723 377.208 277.76 377.289C277.797 377.371 277.847 377.441 277.909 377.501C277.973 377.56 278.046 377.609 278.127 377.649C278.209 377.689 278.292 377.721 278.379 377.746C278.465 377.77 278.551 377.787 278.635 377.798C278.721 377.807 278.8 377.812 278.872 377.812C279.025 377.812 279.177 377.796 279.327 377.764C279.48 377.734 279.616 377.684 279.735 377.612C279.856 377.543 279.953 377.453 280.027 377.341C280.101 377.232 280.138 377.1 280.138 376.944C280.138 376.873 280.123 376.8 280.094 376.726C280.067 376.651 280.022 376.585 279.961 376.525C279.901 376.466 279.822 376.418 279.723 376.381C279.627 376.341 279.512 376.321 279.379 376.321L278.138 376.321Z" fill="#999999"/>
<path d="M281.261 376.147L281.761 376.017C281.808 376.005 281.845 375.984 281.872 375.954C281.902 375.922 281.917 375.88 281.917 375.828V371.443C281.917 371.386 281.901 371.341 281.869 371.306C281.836 371.269 281.791 371.241 281.732 371.221L281.243 371.039V370.831L282.617 370.69V375.828C282.617 375.88 282.631 375.922 282.661 375.954C282.693 375.986 282.73 376.007 282.772 376.017L283.246 376.147V376.38H281.261L281.261 376.147Z" fill="#999999"/>
<path d="M284.663 371.688C284.594 371.688 284.529 371.677 284.467 371.655C284.408 371.63 284.355 371.598 284.308 371.558C284.263 371.519 284.228 371.47 284.2 371.414C284.173 371.354 284.16 371.289 284.16 371.217C284.16 371.145 284.173 371.08 284.2 371.02C284.228 370.961 284.263 370.912 284.308 370.872C284.355 370.83 284.408 370.798 284.467 370.775C284.529 370.753 284.594 370.742 284.663 370.742C284.737 370.742 284.807 370.753 284.871 370.775C284.935 370.795 284.989 370.825 285.034 370.865C285.081 370.904 285.116 370.952 285.141 371.009C285.168 371.064 285.182 371.127 285.182 371.198C285.182 371.273 285.168 371.339 285.141 371.399C285.117 371.458 285.081 371.51 285.034 371.554C284.987 371.596 284.931 371.63 284.867 371.655C284.803 371.677 284.735 371.688 284.663 371.688ZM283.7 376.147L284.212 376.017C284.258 376.005 284.297 375.984 284.326 375.954C284.356 375.922 284.371 375.88 284.371 375.828V373.29C284.371 373.233 284.355 373.188 284.323 373.153C284.291 373.116 284.244 373.088 284.182 373.068L283.712 372.904V372.697L285.067 372.478V375.828C285.067 375.879 285.082 375.922 285.112 375.954C285.144 375.986 285.181 376.007 285.223 376.017L285.715 376.147V376.38H283.701L283.7 376.147Z" fill="#999999"/>
<path d="M286.658 372.92H286.04V372.634C286.141 372.614 286.232 372.596 286.314 372.578C286.397 372.561 286.469 372.533 286.528 372.497C286.587 372.457 286.634 372.403 286.669 372.333C286.706 372.264 286.728 372.169 286.736 372.048L286.765 371.532L287.358 371.417V372.541H288.717L288.662 372.919H287.358V375.494C287.358 375.575 287.384 375.645 287.436 375.702C287.488 375.758 287.551 375.805 287.625 375.843C287.701 375.88 287.78 375.907 287.862 375.924C287.943 375.94 288.015 375.948 288.077 375.948C288.119 375.948 288.166 375.944 288.218 375.936C288.272 375.926 288.324 375.916 288.373 375.907C288.423 375.895 288.468 375.881 288.51 375.866C288.555 375.85 288.588 375.838 288.61 375.828H288.707V376.092C288.672 376.114 288.619 376.145 288.547 376.185C288.478 376.224 288.397 376.264 288.303 376.303C288.212 376.343 288.11 376.376 287.999 376.404C287.89 376.433 287.781 376.448 287.67 376.448C287.531 376.448 287.4 376.431 287.277 376.396C287.156 376.361 287.05 376.312 286.958 376.248C286.867 376.184 286.794 376.104 286.74 376.01C286.686 375.914 286.658 375.804 286.658 375.68L286.658 372.92Z" fill="#999999"/>
<path d="M292.353 375.464V375.831C292.269 375.906 292.174 375.981 292.068 376.058C291.964 376.132 291.849 376.2 291.723 376.262C291.6 376.324 291.467 376.373 291.323 376.41C291.18 376.45 291.028 376.47 290.868 376.47C290.601 376.47 290.36 376.42 290.146 376.321C289.931 376.222 289.748 376.086 289.597 375.913C289.447 375.738 289.331 375.532 289.249 375.297C289.17 375.062 289.131 374.808 289.131 374.533C289.131 374.335 289.154 374.146 289.201 373.966C289.251 373.785 289.32 373.617 289.408 373.461C289.497 373.306 289.604 373.165 289.727 373.038C289.853 372.91 289.991 372.801 290.142 372.712C290.295 372.623 290.459 372.554 290.634 372.504C290.81 372.455 290.992 372.43 291.182 372.43C291.328 372.43 291.457 372.442 291.568 372.467C291.681 372.489 291.78 372.517 291.864 372.549C291.95 372.578 292.023 372.611 292.082 372.645C292.144 372.677 292.199 372.703 292.245 372.723L292.186 373.417H292.049C291.955 373.357 291.861 373.297 291.768 373.235C291.676 373.17 291.58 373.114 291.479 373.064C291.38 373.012 291.274 372.97 291.16 372.938C291.047 372.903 290.92 372.886 290.779 372.886C290.734 372.886 290.686 372.892 290.635 372.904C290.583 372.914 290.531 372.93 290.479 372.952C290.427 372.974 290.379 373 290.335 373.03C290.29 373.06 290.252 373.093 290.22 373.13C290.18 373.175 290.139 373.23 290.097 373.297C290.058 373.361 290.021 373.443 289.986 373.542C289.954 373.638 289.927 373.752 289.905 373.883C289.885 374.014 289.875 374.168 289.875 374.343C289.875 374.595 289.903 374.82 289.957 375.018C290.011 375.216 290.093 375.384 290.201 375.523C290.31 375.661 290.445 375.767 290.605 375.842C290.766 375.913 290.952 375.949 291.164 375.949C291.283 375.949 291.395 375.932 291.501 375.897C291.61 375.863 291.711 375.822 291.805 375.775C291.899 375.725 291.984 375.672 292.061 375.615C292.139 375.558 292.207 375.508 292.264 375.463L292.353 375.464Z" fill="#999999"/>
<path d="M292.816 376.147L293.245 376.017C293.297 376.001 293.335 375.979 293.36 375.95C293.387 375.92 293.401 375.879 293.401 375.828V371.443C293.401 371.386 293.385 371.341 293.353 371.306C293.321 371.271 293.275 371.243 293.216 371.221L292.79 371.039V370.831L294.097 370.69V372.875V373.075C294.206 372.932 294.312 372.818 294.416 372.734C294.522 372.648 294.626 372.582 294.727 372.537C294.831 372.49 294.932 372.46 295.031 372.445C295.132 372.429 295.232 372.421 295.331 372.421C295.501 372.421 295.66 372.447 295.808 372.499C295.959 372.548 296.09 372.626 296.201 372.732C296.314 372.839 296.403 372.976 296.468 373.144C296.532 373.312 296.564 373.512 296.564 373.745V375.807C296.564 375.869 296.579 375.916 296.608 375.948C296.638 375.98 296.674 376.003 296.716 376.015L297.108 376.145V376.379H295.323V376.145L295.716 376.015C295.758 376.003 295.794 375.981 295.823 375.948C295.853 375.916 295.868 375.869 295.868 375.807V374.034C295.868 373.861 295.857 373.708 295.835 373.574C295.815 373.438 295.774 373.323 295.712 373.229C295.651 373.133 295.564 373.06 295.453 373.01C295.344 372.961 295.201 372.936 295.023 372.936C294.942 372.936 294.859 372.942 294.775 372.954C294.692 372.966 294.609 372.987 294.527 373.017C294.446 373.047 294.368 373.086 294.294 373.136C294.22 373.185 294.155 373.246 294.098 373.317V375.825C294.098 375.877 294.111 375.918 294.139 375.947C294.168 375.977 294.207 375.999 294.253 376.014L294.602 376.144V376.378H292.816L292.816 376.147Z" fill="#999999"/>
<path d="M14.6499 229.887V236.396H16.9728V237.189H13.7437V229.887H14.6499Z" fill="black"/>
<path d="M22.713 229.887V230.648H20.1402V233.037H22.4526V233.799H20.1402V236.428H22.713V237.189H19.2339V229.887H22.713Z" fill="black"/>
<path d="M25.4429 237.189H24.5991V229.887H26.0783L27.7241 236.417V229.887H28.5679V237.189H27.0783L25.4429 230.659V237.189Z" fill="black"/>
<path d="M32.2456 237.189C31.6414 237.189 31.1761 237.043 30.8497 236.751C30.5303 236.452 30.3706 236.007 30.3706 235.416V231.66C30.3706 231.069 30.5303 230.627 30.8497 230.335C31.1761 230.036 31.6414 229.887 32.2456 229.887H33.7144V230.679H32.1414C31.8845 230.679 31.6762 230.756 31.5164 230.909C31.3568 231.062 31.277 231.246 31.277 231.462V235.614C31.277 235.83 31.3568 236.014 31.5164 236.167C31.6761 236.32 31.8844 236.396 32.1414 236.396H33.1623V234.133H32.256V233.35H34.0269V237.189L32.2456 237.189Z" fill="black"/>
<path d="M37.3609 237.189V230.679H35.7046V229.887H39.9233V230.679H38.2671V237.189H37.3609Z" fill="black"/>
<path d="M42.3616 233.83V237.189H41.4553V229.887H42.3616V233.058H44.5074V229.887H45.4137V237.189H44.5074V233.83H42.3616Z" fill="black"/>
<path d="M20.2602 108.725C20.2602 109.288 20.1109 109.705 19.8123 109.976C19.5136 110.241 19.0727 110.373 18.4893 110.373H17.406V113.21H16.4998V105.908H18.4685C19.0588 105.908 19.5032 106.04 19.8018 106.304C20.1074 106.562 20.2602 106.972 20.2602 107.535V108.725ZM19.3539 107.441C19.3539 107.177 19.2914 106.986 19.1664 106.868C19.0484 106.749 18.8574 106.69 18.5935 106.69H17.406V109.59H18.5935C18.8574 109.59 19.0484 109.531 19.1664 109.413C19.2914 109.288 19.3539 109.093 19.3539 108.829V107.441Z" fill="black"/>
<path d="M25.9899 111.437C25.9899 112.028 25.8267 112.473 25.5003 112.772C25.1809 113.064 24.7191 113.21 24.1149 113.21H23.8545C23.2503 113.21 22.7851 113.064 22.4587 112.772C22.1392 112.473 21.9795 112.028 21.9795 111.437V105.908H22.8858V111.635C22.8858 111.851 22.9656 112.035 23.1253 112.188C23.2851 112.341 23.4934 112.418 23.7503 112.418H24.2191C24.476 112.418 24.6844 112.341 24.8441 112.188C25.0038 112.035 25.0837 111.851 25.0837 111.635V105.908H25.9899L25.9899 111.437Z" fill="black"/>
<path d="M28.4282 110.185V113.21H27.522V105.908H29.4803C30.0706 105.908 30.515 106.04 30.8136 106.304C31.1192 106.562 31.272 106.972 31.272 107.535V108.537C31.272 109.323 30.9595 109.813 30.3345 110.008L31.7824 113.21H30.7928L29.449 110.185H28.4282ZM30.3657 107.441C30.3657 107.177 30.3032 106.986 30.1782 106.868C30.0602 106.749 29.8692 106.69 29.6053 106.69H28.4282V109.403H29.6053C29.8692 109.403 30.0602 109.343 30.1782 109.225C30.3032 109.1 30.3657 108.905 30.3657 108.641V107.441Z" fill="black"/>
<path d="M35.2622 113.21C34.658 113.21 34.1928 113.064 33.8664 112.772C33.5469 112.473 33.3872 112.028 33.3872 111.437V107.681C33.3872 107.09 33.5469 106.648 33.8664 106.356C34.1928 106.057 34.658 105.908 35.2622 105.908H36.731V106.701H35.158C34.9011 106.701 34.6928 106.777 34.533 106.93C34.3733 107.083 34.2935 107.267 34.2935 107.483V111.635C34.2935 111.851 34.3733 112.035 34.533 112.188C34.6928 112.341 34.9011 112.418 35.158 112.418H36.1789V110.154H35.2726V109.371H37.0435V113.21H35.2622Z" fill="black"/>
<path d="M42.5754 105.908V106.669H40.0024V109.058H42.3149V109.82H40.0024V112.449H42.5754V113.21H39.0962V105.908H42.5754Z" fill="black"/>
<path d="M150.335 60.9677C150.335 61.5311 150.186 61.9484 149.887 62.2196C149.589 62.4839 149.148 62.616 148.565 62.616H147.481V65.4536H146.575V58.151H148.544C149.134 58.151 149.578 58.2831 149.877 58.5474C150.183 58.8048 150.335 59.2151 150.335 59.7784V60.9677ZM149.429 59.6846C149.429 59.4203 149.367 59.229 149.242 59.1108C149.123 58.9925 148.932 58.9334 148.669 58.9334H147.481V61.8336H148.669C148.933 61.8336 149.124 61.7745 149.242 61.6563C149.367 61.5311 149.429 61.3364 149.429 61.0721V59.6846Z" fill="black"/>
<path d="M156.149 63.6801C156.149 64.2713 155.985 64.7164 155.659 65.0155C155.34 65.3076 154.878 65.4536 154.274 65.4536H153.857C153.253 65.4536 152.787 65.3076 152.461 65.0155C152.142 64.7164 151.982 64.2713 151.982 63.6801V59.9245C151.982 59.3333 152.142 58.8917 152.461 58.5996C152.787 58.3005 153.253 58.151 153.857 58.151H154.274C154.878 58.151 155.34 58.3005 155.659 58.5996C155.985 58.8917 156.149 59.3333 156.149 59.9245V63.6801ZM155.242 59.7263C155.242 59.5107 155.163 59.3264 155.003 59.1734C154.843 59.0204 154.635 58.9439 154.378 58.9439H153.753C153.496 58.9439 153.288 59.0204 153.128 59.1734C152.968 59.3264 152.888 59.5107 152.888 59.7263V63.8784C152.888 64.094 152.968 64.2783 153.128 64.4313C153.288 64.5843 153.496 64.6608 153.753 64.6608H154.378C154.635 64.6608 154.843 64.5843 155.003 64.4313C155.163 64.2783 155.242 64.094 155.242 63.8784V59.7263Z" fill="black"/>
<path d="M161.441 63.6801C161.441 64.2713 161.278 64.7164 160.951 65.0155C160.632 65.3076 160.17 65.4536 159.566 65.4536H158.087V64.6608H159.67C159.927 64.6608 160.135 64.5843 160.295 64.4313C160.455 64.2783 160.535 64.094 160.535 63.8784V62.7934C160.535 62.5847 160.479 62.4178 160.368 62.2926C160.264 62.1605 160.104 62.0944 159.889 62.0944H159.576C159.062 62.0944 158.656 61.9449 158.358 61.6458C158.059 61.3398 157.91 60.8982 157.91 60.3209V59.9245C157.91 59.3333 158.069 58.8917 158.389 58.5996C158.715 58.3005 159.181 58.151 159.785 58.151H161.274V58.9439H159.681C159.424 58.9439 159.215 59.0204 159.056 59.1734C158.896 59.3264 158.816 59.5107 158.816 59.7263V60.5191C158.816 60.7347 158.885 60.9156 159.024 61.0616C159.163 61.2007 159.344 61.2702 159.566 61.2702H159.879C160.372 61.2702 160.754 61.4128 161.024 61.698C161.302 61.9831 161.441 62.4143 161.441 62.9916L161.441 63.6801Z" fill="black"/>
<path d="M164.837 65.4536V58.9439H163.181V58.151H167.4V58.9439H165.744V65.4536H164.837Z" fill="black"/>
<path d="M170.453 64.6921V58.9126H169.515V58.151H172.296V58.9126H171.359V64.6921H172.296V65.4536H169.515V64.6921H170.453Z" fill="black"/>
<path d="M176.068 64.6921V58.9126H175.13V58.151H177.911V58.9126H176.974V64.6921H177.911V65.4536H175.13V64.6921H176.068Z" fill="black"/>
<path d="M184.225 63.6801C184.225 64.2713 184.062 64.7164 183.735 65.0155C183.416 65.3076 182.954 65.4536 182.35 65.4536H181.933C181.329 65.4536 180.864 65.3076 180.537 65.0155C180.218 64.7164 180.058 64.2713 180.058 63.6801V59.9245C180.058 59.3333 180.218 58.8917 180.537 58.5996C180.864 58.3005 181.329 58.151 181.933 58.151H182.35C182.954 58.151 183.416 58.3005 183.735 58.5996C184.062 58.8917 184.225 59.3333 184.225 59.9245V63.6801ZM183.318 59.7263C183.318 59.5107 183.239 59.3264 183.079 59.1734C182.919 59.0204 182.711 58.9439 182.454 58.9439H181.829C181.572 58.9439 181.364 59.0204 181.204 59.1734C181.044 59.3264 180.965 59.5107 180.965 59.7263V63.8784C180.965 64.094 181.044 64.2783 181.204 64.4313C181.364 64.5843 181.572 64.6608 181.829 64.6608H182.454C182.711 64.6608 182.919 64.5843 183.079 64.4313C183.239 64.2783 183.318 64.094 183.318 63.8784V59.7263Z" fill="black"/>
<path d="M186.611 65.4536H185.767V58.151H187.246L188.892 64.6816V58.151H189.736V65.4536H188.246L186.611 58.923V65.4536Z" fill="black"/>
<path d="M128.949 236.385C128.678 236.51 128.345 236.572 127.949 236.572H127.532C126.928 236.572 126.463 236.426 126.137 236.134C125.817 235.835 125.657 235.39 125.657 234.799V231.043C125.657 230.452 125.817 230.011 126.137 229.718C126.463 229.419 126.928 229.27 127.532 229.27H127.949C128.553 229.27 129.015 229.419 129.335 229.718C129.661 230.011 129.824 230.452 129.824 231.043V234.799C129.824 235.209 129.744 235.554 129.585 235.832L130.345 236.593L129.751 237.188L128.949 236.385ZM128.918 230.845C128.918 230.63 128.838 230.445 128.678 230.292C128.519 230.139 128.31 230.063 128.053 230.063H127.428C127.171 230.063 126.963 230.139 126.803 230.292C126.644 230.445 126.564 230.629 126.564 230.845V234.997C126.564 235.213 126.644 235.397 126.803 235.55C126.963 235.703 127.171 235.78 127.428 235.78H128.053C128.31 235.78 128.519 235.703 128.678 235.55C128.838 235.397 128.918 235.213 128.918 234.997V230.845Z" fill="black"/>
<path d="M135.356 234.799C135.356 235.39 135.193 235.835 134.867 236.134C134.547 236.426 134.085 236.572 133.481 236.572H133.221C132.617 236.572 132.151 236.426 131.825 236.134C131.505 235.835 131.346 235.39 131.346 234.799V229.27H132.252V234.997C132.252 235.213 132.332 235.397 132.491 235.55C132.651 235.703 132.859 235.78 133.116 235.78H133.585C133.842 235.78 134.05 235.703 134.21 235.55C134.37 235.397 134.45 235.213 134.45 234.997V229.27H135.356L135.356 234.799Z" fill="black"/>
<path d="M137.961 234.726L137.555 236.572H136.627L138.388 229.27H139.586L141.315 236.572H140.388L139.992 234.726H137.961ZM139.825 233.944L138.971 229.958L138.127 233.944H139.825Z" fill="black"/>
<path d="M143.441 236.572H142.597V229.27H144.076L145.722 235.8V229.27H146.566V236.572H145.076L143.441 230.042V236.572Z" fill="black"/>
<path d="M149.743 236.572V230.063H148.087V229.27H152.306V230.063H150.65V236.572H149.743Z" fill="black"/>
<path d="M155.359 235.811V230.031H154.421V229.27H157.202V230.031H156.265V235.811H157.202V236.572H154.421V235.811H155.359Z" fill="black"/>
<path d="M160.974 236.572V230.063H159.318V229.27H163.536V230.063H161.88V236.572H160.974Z" fill="black"/>
<path d="M166.558 236.572V233.182L164.693 229.27H165.693L167.068 232.306L168.443 229.27H169.391L167.495 233.182V236.572H166.558Z" fill="black"/>
<path d="M126.525 25.8962C125.68 25.8962 125.028 25.6917 124.571 25.2828C124.124 24.8641 123.9 24.2409 123.9 23.4133V18.1554C123.9 17.3278 124.124 16.7095 124.571 16.3005C125.028 15.8818 125.68 15.6725 126.525 15.6725H128.582V16.7825H126.38C126.02 16.7825 125.728 16.8896 125.505 17.1038C125.281 17.318 125.169 17.576 125.169 17.8779V23.6908C125.169 23.9926 125.281 24.2506 125.505 24.4649C125.728 24.6791 126.02 24.7862 126.38 24.7862H127.809V21.6168H126.54V20.5214H129.019V25.8962H126.525Z" fill="black"/>
<path d="M137.245 23.4133C137.245 24.2409 137.016 24.8641 136.56 25.2828C136.112 25.6917 135.466 25.8962 134.62 25.8962H134.037C133.191 25.8962 132.539 25.6917 132.082 25.2828C131.635 24.8641 131.412 24.2409 131.412 23.4133V18.1554C131.412 17.3278 131.635 16.7095 132.082 16.3005C132.539 15.8818 133.191 15.6725 134.037 15.6725H134.62C135.466 15.6725 136.112 15.8818 136.56 16.3005C137.016 16.7095 137.245 17.3278 137.245 18.1554V23.4133ZM135.976 17.8779C135.976 17.576 135.864 17.318 135.641 17.1038C135.417 16.8896 135.126 16.7825 134.766 16.7825H133.891C133.531 16.7825 133.239 16.8896 133.016 17.1038C132.792 17.318 132.68 17.576 132.68 17.8779V23.6908C132.68 23.9926 132.792 24.2506 133.016 24.4649C133.239 24.6791 133.531 24.7862 133.891 24.7862H134.766C135.126 24.7862 135.417 24.6791 135.641 24.4649C135.864 24.2506 135.976 23.9926 135.976 23.6908V17.8779Z" fill="black"/>
<path d="M144.888 23.5885C144.888 24.4259 144.693 25.0199 144.304 25.3704C143.925 25.7209 143.293 25.8962 142.408 25.8962H139.492V15.6725H142.233C143.099 15.6725 143.731 15.8477 144.129 16.1983C144.538 16.5488 144.742 17.133 144.742 17.9509V18.7834C144.742 19.5331 144.474 20.0979 143.94 20.4776C144.572 20.8281 144.888 21.427 144.888 22.2741V23.5885ZM143.473 17.8195C143.473 17.4495 143.385 17.1817 143.21 17.0162C143.045 16.8506 142.778 16.7679 142.408 16.7679H140.76V19.9956H142.408C142.71 19.9956 142.963 19.8983 143.167 19.7035C143.371 19.5088 143.473 19.2508 143.473 18.9295V17.8195ZM143.619 22.1426C143.619 21.8213 143.522 21.5681 143.327 21.3832C143.133 21.1884 142.875 21.091 142.554 21.091H140.76V24.8008H142.54C142.909 24.8008 143.181 24.718 143.356 24.5525C143.531 24.3772 143.619 24.1046 143.619 23.7346L143.619 22.1426Z" fill="black"/>
<path d="M149.059 15.6725V24.7862H152.311V25.8962H147.791V15.6725H149.059Z" fill="black"/>
<path d="M157.271 24.83V16.7387H155.958V15.6725H159.852V16.7387H158.54V24.83H159.852V25.8962H155.958V24.83H157.271Z" fill="black"/>
<path d="M164.17 25.8962H162.988V15.6725H165.059L167.363 24.8154V15.6725H168.545V25.8962H166.459L164.17 16.7533V25.8962Z" fill="black"/>
<path d="M176.1 23.4133C176.1 24.2409 175.871 24.8641 175.414 25.2828C174.967 25.6917 174.321 25.8962 173.475 25.8962H171.404V24.7862H173.621C173.98 24.7862 174.272 24.6791 174.496 24.4649C174.719 24.2506 174.831 23.9926 174.831 23.6908V22.1718C174.831 21.8797 174.753 21.646 174.598 21.4708C174.452 21.2858 174.228 21.1933 173.927 21.1933H173.489C172.77 21.1933 172.201 20.9839 171.783 20.5652C171.365 20.1368 171.156 19.5185 171.156 18.7104V18.1554C171.156 17.3278 171.38 16.7095 171.827 16.3005C172.284 15.8818 172.935 15.6725 173.781 15.6725H175.866V16.7825H173.635C173.275 16.7825 172.984 16.8896 172.76 17.1038C172.537 17.318 172.425 17.576 172.425 17.8779V18.9879C172.425 19.2897 172.522 19.5429 172.716 19.7474C172.911 19.9421 173.164 20.0395 173.475 20.0395H173.912C174.603 20.0395 175.137 20.2391 175.516 20.6383C175.905 21.0375 176.1 21.6412 176.1 22.4493L176.1 23.4133Z" fill="black"/>
<path d="M79.1248 234.163V237.188H78.2185V229.885H80.1769C80.7671 229.885 81.2116 230.018 81.5102 230.282C81.8157 230.539 81.9685 230.949 81.9685 231.513V232.514C81.9685 233.3 81.656 233.791 81.031 233.985L82.479 237.188H81.4894L80.1456 234.163H79.1248ZM81.0623 231.419C81.0623 231.155 80.9998 230.963 80.8748 230.845C80.7567 230.727 80.5657 230.668 80.3018 230.668H79.1248V233.38H80.3018C80.5657 233.38 80.7567 233.321 80.8748 233.203C80.9998 233.077 81.0623 232.883 81.0623 232.618V231.419Z" fill="black"/>
<path d="M84.9066 235.342L84.5003 237.188H83.5732L85.3337 229.885H86.5316L88.2607 237.188H87.3337L86.9378 235.342H84.9066ZM86.7712 234.559L85.917 230.574L85.0733 234.559H86.7712Z" fill="black"/>
<path d="M91.074 237.188V230.678H89.4177V229.885H93.6365V230.678H91.9802V237.188H91.074Z" fill="black"/>
<path d="M98.8871 229.885V230.647H96.3142V233.036H98.6267V233.798H96.3142V236.426H98.8871V237.188H95.408V229.885H98.8871Z" fill="black"/>
<path d="M197.415 231.995C197.415 232.559 197.266 232.976 196.968 233.247C196.669 233.511 196.228 233.644 195.645 233.644H194.561V236.481H193.655V229.179H195.624C196.214 229.179 196.658 229.311 196.957 229.575C197.263 229.832 197.415 230.243 197.415 230.806V231.995ZM196.509 230.712C196.509 230.448 196.447 230.257 196.322 230.138C196.204 230.02 196.013 229.961 195.749 229.961H194.561V232.861H195.749C196.013 232.861 196.204 232.802 196.322 232.684C196.447 232.559 196.509 232.364 196.509 232.099V230.712Z" fill="black"/>
<path d="M200.687 235.72V229.94H199.75V229.179H202.531V229.94H201.593V235.72H202.531V236.481H199.75V235.72H200.687Z" fill="black"/>
<path d="M206.302 236.481V229.971H204.646V229.179H208.865V229.971H207.208V236.481H206.302Z" fill="black"/>
<path d="M212.574 236.481C211.97 236.481 211.504 236.335 211.178 236.043C210.858 235.744 210.699 235.299 210.699 234.708V230.952C210.699 230.361 210.858 229.919 211.178 229.627C211.504 229.328 211.97 229.179 212.574 229.179H214.053V229.971H212.47C212.213 229.971 212.004 230.048 211.845 230.201C211.685 230.354 211.605 230.538 211.605 230.754V234.906C211.605 235.122 211.685 235.306 211.845 235.459C212.004 235.612 212.213 235.688 212.47 235.688H214.053V236.481L212.574 236.481Z" fill="black"/>
<path d="M216.918 233.122V236.481H216.012V229.179H216.918V232.35H219.064V229.179H219.97V236.481H219.064V233.122H216.918Z" fill="black"/>
<path d="M287.61 210.485H14.2872C13.0085 210.485 11.9719 209.447 11.9719 208.167V175.535C11.9719 174.254 13.0085 173.216 14.2872 173.216H287.61C288.889 173.216 289.926 174.254 289.926 175.535V208.167C289.926 209.447 288.889 210.485 287.61 210.485Z" fill="#28282A"/>
<path d="M253.498 234.708C253.498 235.299 253.335 235.744 253.008 236.043C252.689 236.335 252.227 236.481 251.623 236.481H250.144V235.688H251.727C251.984 235.688 252.192 235.612 252.352 235.459C252.512 235.306 252.591 235.122 252.591 234.906V233.821C252.591 233.612 252.536 233.446 252.425 233.32C252.321 233.188 252.161 233.122 251.946 233.122H251.633C251.119 233.122 250.713 232.973 250.414 232.674C250.116 232.368 249.967 231.926 249.967 231.349V230.952C249.967 230.361 250.126 229.919 250.446 229.627C250.772 229.328 251.237 229.179 251.842 229.179H253.331V229.972H251.737C251.48 229.972 251.272 230.048 251.112 230.201C250.953 230.354 250.873 230.538 250.873 230.754V231.547C250.873 231.763 250.942 231.943 251.081 232.089C251.22 232.229 251.401 232.298 251.623 232.298H251.936C252.429 232.298 252.811 232.441 253.081 232.726C253.359 233.011 253.498 233.442 253.498 234.019L253.498 234.708Z" fill="black"/>
<path d="M256.342 234.635L255.936 236.481H255.009L256.769 229.179H257.967L259.696 236.481H258.769L258.373 234.635H256.342ZM258.207 233.852L257.353 229.867L256.509 233.852H258.207Z" fill="black"/>
<path d="M263.385 234.03H262.52L261.499 229.93V236.481H260.708V229.179H262.155L262.989 232.913L263.833 229.179H265.239V236.481H264.426V229.93L263.385 234.03Z" fill="black"/>
<path d="M270.468 231.995C270.468 232.559 270.319 232.976 270.02 233.247C269.722 233.511 269.281 233.644 268.698 233.644H267.614V236.481H266.708V229.179H268.677C269.267 229.179 269.711 229.311 270.01 229.575C270.316 229.832 270.468 230.243 270.468 230.806V231.995ZM269.562 230.712C269.562 230.448 269.5 230.257 269.375 230.138C269.257 230.02 269.066 229.961 268.802 229.961H267.614V232.861H268.802C269.066 232.861 269.257 232.802 269.375 232.684C269.5 232.559 269.562 232.364 269.562 232.099V230.712Z" fill="black"/>
<path d="M273.49 229.179V235.688H275.813V236.481H272.584V229.179H273.49Z" fill="black"/>
<path d="M281.553 229.179V229.94H278.98V232.329H281.293V233.091H278.98V235.72H281.553V236.481H278.074V229.179H281.553Z" fill="black"/>
<path d="M29.5276 296.02C29.5276 285.039 29.5276 284.917 29.5276 284.917" stroke="black" stroke-width="0.467254"/>
<path d="M29.5276 328.145C29.5276 317.164 29.5276 317.042 29.5276 317.042" stroke="black" stroke-width="0.467254"/>
<path d="M88.7651 296.02C88.7651 285.039 88.7651 284.917 88.7651 284.917" stroke="black" stroke-width="0.467254"/>
<path d="M88.7651 328.145C88.7651 317.164 88.7651 317.042 88.7651 317.042" stroke="black" stroke-width="0.467254"/>
<path d="M147.82 296.02C147.82 285.039 147.82 284.917 147.82 284.917" stroke="black" stroke-width="0.467254"/>
<path d="M147.82 328.145C147.82 317.164 147.82 317.042 147.82 317.042" stroke="black" stroke-width="0.467254"/>
<path d="M206.875 296.02C206.875 285.039 206.875 284.917 206.875 284.917" stroke="black" stroke-width="0.467254"/>
<path d="M206.875 328.145C206.875 317.164 206.875 317.042 206.875 317.042" stroke="black" stroke-width="0.467254"/>
<path d="M265.93 296.02C265.93 285.039 265.93 284.917 265.93 284.917" stroke="black" stroke-width="0.467254"/>
<path d="M265.93 328.145C265.93 317.164 265.93 317.042 265.93 317.042" stroke="black" stroke-width="0.467254"/>
<path d="M171.364 97.4033C182.92 97.4033 183.049 97.4033 183.049 97.4033" stroke="black" stroke-width="0.47969"/>
<path d="M134.471 97.4033C146.304 97.4033 146.435 97.4033 146.435 97.4033" stroke="black" stroke-width="0.485384"/>
<path d="M35.2292 139.641C43.5961 148.02 43.689 148.114 43.689 148.114" stroke="black" stroke-width="0.485384"/>
<path d="M289.816 86.3467C289.816 83.6936 288.101 81.5192 285.996 81.5192H256.667C254.568 81.5192 252.847 83.6936 252.847 86.3467V145.082C252.847 147.735 254.568 149.909 256.667 149.909H285.996C288.101 149.909 289.816 147.735 289.816 145.082V86.3467Z" fill="black"/>
</g>
<defs>
<clipPath id="clip0_2893_165">
<rect width="300" height="380" fill="white"/>
</clipPath>
</defs>
</svg>
