<svg width="255" height="380" viewBox="0 0 255 380" fill="none" xmlns="http://www.w3.org/2000/svg">
<g clip-path="url(#clip0_2893_333)">
<path d="M0 0H255V380H0V0Z" fill="#E6E6E6"/>
<path d="M174.396 320.2C171.617 320.2 169.339 321.918 169.339 324.026V353.399C169.339 355.501 171.617 357.224 174.396 357.224H235.926C238.705 357.224 240.983 355.501 240.983 353.399V324.026C240.983 321.918 238.705 320.2 235.926 320.2H174.396Z" fill="black"/>
<path d="M218.621 373.057C218.601 373.007 218.573 372.969 218.535 372.942C218.501 372.915 218.458 372.892 218.409 372.875L218.126 372.76V372.53H219.86V372.76L219.313 372.919L220.194 374.993L220.369 375.52H220.41L221.396 372.997L220.879 372.76V372.53H222.3V372.76L222.006 372.942C221.956 372.966 221.913 372.992 221.876 373.02C221.838 373.047 221.81 373.083 221.79 373.127L220.771 375.609L220.365 376.417H220.046L218.621 373.057Z" fill="#999999"/>
<path d="M224.43 376.477C224.153 376.477 223.9 376.43 223.672 376.336C223.443 376.242 223.248 376.108 223.084 375.935C222.923 375.76 222.798 375.547 222.708 375.297C222.622 375.047 222.578 374.768 222.578 374.459C222.578 374.172 222.622 373.905 222.708 373.658C222.798 373.41 222.923 373.195 223.084 373.012C223.248 372.829 223.446 372.686 223.679 372.582C223.912 372.476 224.175 372.423 224.467 372.423C224.785 372.423 225.059 372.478 225.289 372.589C225.522 372.701 225.715 372.849 225.866 373.034C226.02 373.22 226.134 373.435 226.208 373.68C226.282 373.922 226.32 374.177 226.32 374.444C226.32 374.726 226.276 374.991 226.189 375.238C226.103 375.485 225.977 375.701 225.814 375.887C225.653 376.07 225.456 376.215 225.222 376.321C224.989 376.425 224.725 376.477 224.43 376.477ZM224.486 376.128C224.694 376.128 224.867 376.077 225.003 375.976C225.142 375.875 225.251 375.746 225.33 375.59C225.412 375.432 225.469 375.259 225.501 375.071C225.534 374.881 225.55 374.698 225.55 374.522C225.55 374.307 225.529 374.096 225.487 373.888C225.447 373.678 225.381 373.49 225.289 373.324C225.2 373.158 225.084 373.025 224.94 372.923C224.796 372.822 224.621 372.771 224.415 372.771C224.277 372.771 224.154 372.795 224.047 372.842C223.943 372.889 223.851 372.952 223.772 373.031C223.693 373.11 223.626 373.203 223.571 373.309C223.519 373.413 223.476 373.525 223.441 373.643C223.409 373.762 223.385 373.883 223.37 374.007C223.359 374.13 223.353 374.25 223.353 374.366C223.353 374.498 223.361 374.632 223.376 374.771C223.392 374.907 223.417 375.04 223.451 375.171C223.488 375.3 223.535 375.422 223.592 375.539C223.649 375.655 223.72 375.756 223.804 375.843C223.888 375.929 223.986 375.999 224.098 376.05C224.212 376.102 224.34 376.128 224.486 376.128Z" fill="#999999"/>
<path d="M226.702 376.147L227.033 376.009C227.085 375.99 227.135 375.961 227.182 375.924C227.231 375.884 227.27 375.849 227.297 375.816L228.353 374.511L227.319 373.068C227.29 373.023 227.255 372.985 227.215 372.953C227.176 372.918 227.127 372.892 227.07 372.875L226.736 372.76V372.53H228.432V372.76L228.034 372.912L228.614 373.743L228.818 374.11H228.845L229.715 372.949L229.362 372.76V372.53H230.675V372.76L230.344 372.901C230.292 372.921 230.242 372.949 230.195 372.986C230.15 373.023 230.113 373.059 230.084 373.094L229.068 374.348L230.139 375.843C230.172 375.887 230.208 375.927 230.247 375.961C230.289 375.993 230.338 376.018 230.392 376.035L230.716 376.147V376.38H229.02V376.147L229.425 375.998L228.804 375.112L228.6 374.748H228.573L227.665 375.961L228.019 376.146V376.38H226.702L226.702 376.147Z" fill="#999999"/>
<path d="M231.919 376.277C231.855 376.257 231.787 376.228 231.715 376.191C231.645 376.154 231.581 376.107 231.521 376.05C231.462 375.993 231.412 375.926 231.372 375.85C231.335 375.771 231.317 375.681 231.317 375.579C231.317 375.465 231.338 375.366 231.38 375.282C231.425 375.196 231.48 375.123 231.547 375.063C231.614 375.002 231.689 374.952 231.77 374.915C231.852 374.878 231.93 374.851 232.005 374.833V374.807C231.928 374.762 231.851 374.709 231.774 374.647C231.697 374.583 231.628 374.508 231.566 374.421C231.506 374.335 231.457 374.236 231.417 374.124C231.38 374.011 231.361 373.882 231.361 373.739C231.361 373.556 231.397 373.384 231.469 373.223C231.543 373.062 231.648 372.923 231.782 372.804C231.915 372.685 232.076 372.592 232.265 372.526C232.453 372.456 232.663 372.422 232.894 372.422C233.042 372.422 233.184 372.432 233.318 372.451C233.451 372.471 233.58 372.497 233.704 372.529H235.01L234.965 372.985L233.979 372.859V372.883C234.039 372.947 234.092 373.012 234.139 373.076C234.186 373.14 234.226 373.208 234.258 373.28C234.293 373.349 234.319 373.423 234.336 373.503C234.354 373.579 234.363 373.663 234.363 373.755C234.363 373.938 234.328 374.107 234.259 374.263C234.192 374.419 234.094 374.555 233.965 374.671C233.836 374.785 233.677 374.874 233.489 374.938C233.303 375.002 233.09 375.034 232.849 375.034C232.787 375.034 232.724 375.032 232.659 375.026C232.597 375.018 232.538 375.01 232.481 375.002C232.424 374.992 232.37 374.981 232.321 374.969C232.274 374.957 232.234 374.944 232.202 374.931C232.165 374.939 232.128 374.954 232.091 374.976C232.056 374.998 232.024 375.027 231.994 375.061C231.964 375.094 231.939 375.132 231.92 375.176C231.902 375.221 231.893 375.269 231.893 375.321C231.893 375.373 231.902 375.422 231.92 375.469C231.937 375.514 231.961 375.554 231.99 375.588C232.02 375.623 232.053 375.652 232.091 375.677C232.13 375.699 232.171 375.714 232.213 375.722H233.526C233.774 375.722 233.981 375.751 234.147 375.811C234.316 375.87 234.451 375.948 234.553 376.044C234.657 376.141 234.73 376.248 234.772 376.367C234.817 376.483 234.839 376.6 234.839 376.716C234.839 376.931 234.786 377.127 234.679 377.305C234.575 377.486 234.431 377.641 234.248 377.769C234.064 377.9 233.849 378.002 233.601 378.073C233.353 378.145 233.086 378.181 232.801 378.181C232.556 378.181 232.329 378.16 232.121 378.118C231.915 378.076 231.736 378.013 231.585 377.929C231.434 377.847 231.315 377.746 231.228 377.625C231.144 377.503 231.101 377.364 231.101 377.205C231.101 377.077 231.124 376.963 231.168 376.864C231.215 376.765 231.276 376.679 231.351 376.604C231.425 376.533 231.511 376.472 231.607 376.423C231.706 376.373 231.811 376.334 231.92 376.304L231.919 376.277ZM232.868 374.737C232.994 374.737 233.106 374.714 233.202 374.667C233.299 374.62 233.38 374.552 233.444 374.463C233.508 374.374 233.557 374.266 233.589 374.14C233.624 374.012 233.641 373.867 233.641 373.706C233.641 373.55 233.623 373.412 233.585 373.291C233.548 373.169 233.495 373.067 233.426 372.983C233.359 372.899 233.277 372.836 233.18 372.794C233.086 372.749 232.98 372.727 232.864 372.727C232.75 372.727 232.647 372.748 232.555 372.79C232.464 372.832 232.384 372.895 232.317 372.979C232.25 373.061 232.198 373.163 232.161 373.287C232.126 373.408 232.109 373.549 232.109 373.71C232.109 373.873 232.126 374.019 232.161 374.147C232.198 374.274 232.249 374.381 232.313 374.47C232.38 374.557 232.461 374.623 232.555 374.67C232.649 374.715 232.754 374.737 232.868 374.737ZM232.232 376.321C232.185 376.333 232.135 376.356 232.083 376.391C232.031 376.426 231.984 376.472 231.941 376.529C231.899 376.586 231.865 376.654 231.837 376.733C231.81 376.814 231.796 376.907 231.796 377.011C231.796 377.115 231.815 377.208 231.852 377.289C231.889 377.371 231.939 377.441 232.001 377.501C232.065 377.56 232.139 377.61 232.22 377.649C232.302 377.689 232.386 377.721 232.473 377.746C232.56 377.77 232.646 377.788 232.73 377.798C232.817 377.807 232.896 377.812 232.968 377.812C233.122 377.812 233.274 377.796 233.426 377.764C233.579 377.734 233.716 377.684 233.835 377.612C233.956 377.543 234.054 377.453 234.129 377.341C234.203 377.232 234.24 377.1 234.24 376.944C234.24 376.873 234.225 376.8 234.195 376.726C234.168 376.651 234.123 376.585 234.062 376.525C234.002 376.466 233.923 376.418 233.823 376.381C233.727 376.341 233.611 376.321 233.478 376.321L232.232 376.321Z" fill="#999999"/>
<path d="M235.367 376.147L235.869 376.017C235.917 376.005 235.954 375.984 235.981 375.954C236.011 375.922 236.026 375.88 236.026 375.828V371.443C236.026 371.386 236.01 371.341 235.977 371.306C235.945 371.269 235.899 371.241 235.84 371.221L235.349 371.039V370.831L236.729 370.69V375.828C236.729 375.88 236.744 375.922 236.773 375.954C236.805 375.986 236.843 376.007 236.885 376.017L237.361 376.147V376.38H235.367L235.367 376.147Z" fill="#999999"/>
<path d="M238.784 371.688C238.715 371.688 238.649 371.677 238.587 371.655C238.527 371.63 238.474 371.598 238.427 371.558C238.382 371.519 238.346 371.471 238.319 371.414C238.292 371.354 238.278 371.289 238.278 371.217C238.278 371.145 238.292 371.08 238.319 371.02C238.346 370.961 238.382 370.912 238.427 370.872C238.474 370.83 238.527 370.798 238.587 370.776C238.649 370.753 238.715 370.742 238.784 370.742C238.858 370.742 238.928 370.753 238.992 370.776C239.057 370.795 239.111 370.825 239.156 370.865C239.203 370.904 239.239 370.952 239.264 371.009C239.291 371.064 239.305 371.127 239.305 371.198C239.305 371.273 239.291 371.339 239.264 371.399C239.239 371.458 239.203 371.51 239.156 371.555C239.109 371.597 239.053 371.63 238.988 371.655C238.924 371.677 238.856 371.688 238.784 371.688ZM237.817 376.147L238.33 376.017C238.377 376.005 238.416 375.984 238.446 375.954C238.475 375.922 238.49 375.88 238.49 375.828V373.29C238.49 373.234 238.474 373.188 238.442 373.153C238.41 373.116 238.363 373.088 238.301 373.068L237.828 372.905V372.697L239.189 372.478V375.828C239.189 375.879 239.204 375.922 239.234 375.954C239.266 375.986 239.304 376.007 239.346 376.017L239.84 376.147V376.38H237.817L237.817 376.147Z" fill="#999999"/>
<path d="M240.787 372.92H240.166V372.634C240.267 372.614 240.359 372.596 240.441 372.578C240.525 372.561 240.597 372.533 240.656 372.497C240.716 372.457 240.763 372.403 240.798 372.334C240.835 372.264 240.857 372.169 240.865 372.048L240.895 371.532L241.49 371.417V372.541H242.855L242.799 372.92H241.49V375.494C241.49 375.575 241.516 375.645 241.568 375.702C241.62 375.758 241.683 375.805 241.757 375.843C241.834 375.88 241.914 375.907 241.996 375.924C242.077 375.94 242.149 375.948 242.211 375.948C242.254 375.948 242.301 375.944 242.353 375.936C242.407 375.926 242.46 375.916 242.509 375.907C242.559 375.895 242.605 375.881 242.647 375.866C242.691 375.85 242.725 375.838 242.747 375.829H242.844V376.092C242.809 376.114 242.756 376.145 242.684 376.185C242.615 376.224 242.533 376.264 242.439 376.303C242.347 376.343 242.245 376.376 242.134 376.404C242.024 376.433 241.914 376.448 241.803 376.448C241.664 376.448 241.532 376.431 241.408 376.396C241.287 376.362 241.18 376.312 241.088 376.248C240.997 376.184 240.924 376.104 240.869 376.01C240.815 375.914 240.787 375.804 240.787 375.68L240.787 372.92Z" fill="#999999"/>
<path d="M246.506 375.464V375.831C246.421 375.906 246.326 375.981 246.219 376.058C246.115 376.132 246 376.2 245.873 376.262C245.749 376.324 245.616 376.373 245.472 376.41C245.328 376.45 245.175 376.47 245.014 376.47C244.746 376.47 244.505 376.42 244.289 376.321C244.073 376.222 243.89 376.086 243.738 375.913C243.587 375.738 243.471 375.532 243.389 375.297C243.31 375.062 243.27 374.808 243.27 374.533C243.27 374.335 243.294 374.146 243.341 373.966C243.39 373.785 243.46 373.617 243.549 373.461C243.638 373.306 243.745 373.165 243.869 373.038C243.995 372.91 244.134 372.801 244.285 372.712C244.439 372.623 244.604 372.554 244.78 372.504C244.956 372.455 245.139 372.43 245.33 372.43C245.476 372.43 245.605 372.443 245.717 372.467C245.831 372.489 245.93 372.517 246.015 372.549C246.101 372.579 246.175 372.611 246.234 372.645C246.296 372.677 246.351 372.703 246.398 372.723L246.338 373.417H246.2C246.106 373.357 246.012 373.297 245.918 373.235C245.826 373.17 245.73 373.114 245.628 373.064C245.529 373.012 245.422 372.97 245.308 372.938C245.194 372.903 245.066 372.886 244.925 372.886C244.88 372.886 244.832 372.892 244.78 372.904C244.728 372.914 244.676 372.93 244.624 372.952C244.572 372.974 244.523 373 244.479 373.03C244.434 373.06 244.396 373.093 244.363 373.13C244.324 373.175 244.283 373.23 244.241 373.297C244.201 373.361 244.164 373.443 244.129 373.542C244.097 373.638 244.07 373.752 244.047 373.883C244.028 374.014 244.018 374.168 244.018 374.343C244.018 374.595 244.045 374.82 244.099 375.018C244.154 375.216 244.236 375.384 244.345 375.523C244.454 375.661 244.589 375.767 244.75 375.842C244.912 375.913 245.099 375.949 245.312 375.949C245.431 375.949 245.544 375.932 245.65 375.897C245.76 375.863 245.861 375.822 245.955 375.775C246.05 375.725 246.135 375.672 246.212 375.616C246.291 375.559 246.359 375.508 246.417 375.463L246.506 375.464Z" fill="#999999"/>
<path d="M246.97 376.147L247.402 376.017C247.454 376.001 247.492 375.979 247.517 375.95C247.544 375.92 247.558 375.88 247.558 375.828V371.443C247.558 371.386 247.542 371.341 247.51 371.306C247.477 371.271 247.432 371.243 247.372 371.221L246.944 371.039V370.831L248.257 370.69V372.875V373.075C248.366 372.932 248.473 372.818 248.577 372.734C248.684 372.648 248.788 372.582 248.89 372.537C248.994 372.491 249.095 372.46 249.195 372.445C249.296 372.429 249.397 372.421 249.496 372.421C249.667 372.421 249.827 372.447 249.976 372.499C250.127 372.548 250.258 372.626 250.37 372.732C250.484 372.839 250.573 372.976 250.637 373.144C250.702 373.312 250.734 373.513 250.734 373.745V375.807C250.734 375.869 250.749 375.916 250.779 375.948C250.809 375.98 250.845 376.003 250.887 376.015L251.281 376.145V376.379H249.488V376.145L249.883 376.015C249.925 376.003 249.961 375.981 249.991 375.948C250.02 375.916 250.035 375.869 250.035 375.807V374.034C250.035 373.861 250.024 373.708 250.002 373.574C249.982 373.438 249.941 373.323 249.879 373.229C249.817 373.133 249.73 373.06 249.619 373.011C249.51 372.961 249.366 372.936 249.187 372.936C249.106 372.936 249.022 372.942 248.938 372.954C248.854 372.966 248.771 372.987 248.689 373.017C248.607 373.047 248.529 373.086 248.455 373.136C248.381 373.185 248.315 373.246 248.258 373.317V375.825C248.258 375.877 248.271 375.918 248.299 375.947C248.329 375.977 248.367 375.999 248.414 376.014L248.764 376.144V376.378H246.971L246.97 376.147Z" fill="#999999"/>
<path d="M180.308 308.242V301.732H178.645V300.939H182.882V301.732H181.218V308.242H180.308Z" fill="black"/>
<path d="M185.225 305.217V308.242H184.315V300.939H186.282C186.875 300.939 187.321 301.071 187.621 301.336C187.928 301.593 188.081 302.003 188.081 302.567V303.568C188.081 304.354 187.767 304.844 187.14 305.039L188.594 308.242H187.6L186.251 305.217H185.225ZM187.171 302.473C187.171 302.209 187.108 302.017 186.983 301.899C186.864 301.781 186.672 301.722 186.407 301.722H185.225V304.434H186.407C186.672 304.434 186.864 304.375 186.983 304.257C187.108 304.131 187.171 303.937 187.171 303.672V302.473Z" fill="black"/>
<path d="M191.586 307.48V301.701H190.645V300.939H193.437V301.701H192.496V307.48H193.437V308.242H190.645V307.48H191.586Z" fill="black"/>
<path d="M198.103 305.79H197.235L196.21 301.69V308.242H195.415V300.939H196.869L197.706 304.674L198.553 300.939H199.965V308.242H199.149V301.69L198.103 305.79Z" fill="black"/>
<path d="M171.98 114.74C171.98 115.331 171.816 115.776 171.488 116.075C171.168 116.368 170.704 116.514 170.097 116.514H168.999V115.721H170.202C170.46 115.721 170.669 115.644 170.829 115.491C170.99 115.338 171.07 115.154 171.07 114.938V109.993H169.386V109.211H171.98V114.74Z" fill="black"/>
<path d="M175.694 115.752V109.973H174.753V109.211H177.546V109.973H176.604V115.752H177.546V116.514H174.753V115.752H175.694Z" fill="black"/>
<path d="M181.333 116.514V110.004H179.67V109.211H183.906V110.004H182.243V116.514H181.333Z" fill="black"/>
<path d="M186.972 116.514V110.004H185.308V109.211H189.545V110.004H187.882V116.514H186.972Z" fill="black"/>
<path d="M194.817 109.211V109.973H192.234V112.362H194.556V113.123H192.234V115.752H194.817V116.514H191.324V109.211H194.817Z" fill="black"/>
<path d="M197.527 113.488V116.514H196.617V109.211H198.584C199.176 109.211 199.623 109.343 199.923 109.607C200.229 109.865 200.383 110.275 200.383 110.838V111.84C200.383 112.626 200.069 113.116 199.441 113.311L200.895 116.514H199.902L198.552 113.488H197.527ZM199.473 110.745C199.473 110.48 199.41 110.289 199.285 110.171C199.166 110.053 198.974 109.993 198.709 109.993H197.527V112.706H198.709C198.974 112.706 199.166 112.647 199.285 112.529C199.41 112.403 199.473 112.209 199.473 111.944V110.745Z" fill="black"/>
<path d="M106.509 52.7477C106.509 53.311 106.359 53.7283 106.059 53.9996C105.76 54.2639 105.317 54.396 104.731 54.396H103.643V57.2336H102.733V49.931H104.71C105.303 49.931 105.749 50.0631 106.049 50.3274C106.356 50.5847 106.509 50.9951 106.509 51.5584V52.7477ZM105.599 51.4645C105.599 51.2002 105.536 51.009 105.411 50.8907C105.292 50.7725 105.101 50.7134 104.836 50.7134H103.643V53.6136H104.836C105.101 53.6136 105.292 53.5545 105.411 53.4363C105.536 53.3111 105.599 53.1163 105.599 52.852V51.4645Z" fill="black"/>
<path d="M112.347 55.4601C112.347 56.0513 112.183 56.4964 111.855 56.7955C111.534 57.0876 111.071 57.2336 110.464 57.2336H110.045C109.439 57.2336 108.972 57.0876 108.644 56.7955C108.323 56.4964 108.163 56.0513 108.163 55.4601V51.7045C108.163 51.1133 108.323 50.6717 108.644 50.3796C108.972 50.0805 109.439 49.931 110.045 49.931H110.464C111.071 49.931 111.534 50.0805 111.855 50.3796C112.183 50.6717 112.347 51.1133 112.347 51.7045V55.4601ZM111.437 51.5062C111.437 51.2906 111.357 51.1063 111.196 50.9533C111.036 50.8003 110.827 50.7238 110.569 50.7238H109.941C109.683 50.7238 109.474 50.8003 109.313 50.9533C109.153 51.1063 109.073 51.2906 109.073 51.5062V55.6583C109.073 55.8739 109.153 56.0582 109.313 56.2112C109.474 56.3642 109.683 56.4407 109.941 56.4407H110.569C110.827 56.4407 111.036 56.3642 111.196 56.2112C111.357 56.0582 111.437 55.8739 111.437 55.6583V51.5062Z" fill="black"/>
<path d="M117.661 55.4601C117.661 56.0513 117.497 56.4964 117.17 56.7955C116.849 57.0876 116.385 57.2336 115.778 57.2336H114.293V56.4407H115.883C116.141 56.4407 116.35 56.3643 116.511 56.2112C116.671 56.0582 116.751 55.8739 116.751 55.6583V54.5734C116.751 54.3647 116.695 54.1978 116.584 54.0726C116.479 53.9405 116.319 53.8744 116.103 53.8744H115.789C115.273 53.8744 114.865 53.7249 114.565 53.4258C114.265 53.1198 114.115 52.6782 114.115 52.1009V51.7045C114.115 51.1133 114.276 50.6717 114.596 50.3796C114.924 50.0805 115.391 49.931 115.998 49.931H117.494V50.7238H115.893C115.635 50.7238 115.426 50.8003 115.266 50.9533C115.106 51.1063 115.025 51.2906 115.025 51.5062V52.2991C115.025 52.5147 115.095 52.6955 115.234 52.8416C115.374 52.9807 115.555 53.0503 115.778 53.0503H116.092C116.587 53.0503 116.971 53.1928 117.243 53.478C117.522 53.7631 117.661 54.1943 117.661 54.7716L117.661 55.4601Z" fill="black"/>
<path d="M121.072 56.472V50.6925H120.131V49.931H122.924V50.6925H121.982V56.472H122.924V57.2336H120.131V56.472H121.072Z" fill="black"/>
<path d="M126.711 57.2336V50.7238H125.048V49.931H129.284V50.7238H127.621V57.2336H126.711Z" fill="black"/>
<path d="M132.349 56.472V50.6925H131.408V49.931H134.201V50.6925H133.259V56.472H134.201V57.2336H131.408V56.472H132.349Z" fill="black"/>
<path d="M140.541 55.4601C140.541 56.0513 140.377 56.4964 140.049 56.7955C139.728 57.0876 139.264 57.2336 138.658 57.2336H138.239C137.633 57.2336 137.165 57.0876 136.838 56.7955C136.517 56.4964 136.356 56.0513 136.356 55.4601V51.7045C136.356 51.1133 136.517 50.6717 136.838 50.3796C137.165 50.0805 137.633 49.931 138.239 49.931H138.658C139.264 49.931 139.728 50.0805 140.049 50.3796C140.377 50.6717 140.541 51.1133 140.541 51.7045V55.4601ZM139.63 51.5062C139.63 51.2906 139.55 51.1063 139.39 50.9533C139.23 50.8003 139.021 50.7238 138.762 50.7238H138.135C137.877 50.7238 137.668 50.8003 137.507 50.9533C137.347 51.1063 137.267 51.2906 137.267 51.5062V55.6583C137.267 55.8739 137.347 56.0582 137.507 56.2112C137.667 56.3642 137.877 56.4407 138.135 56.4407H138.762C139.02 56.4407 139.23 56.3642 139.39 56.2112C139.55 56.0582 139.63 55.8739 139.63 55.6583V51.5062Z" fill="black"/>
<path d="M142.937 57.2336H142.089V49.931H143.575L145.227 56.4616V49.931H146.075V57.2336H144.579L142.937 50.703V57.2336Z" fill="black"/>
<path d="M114.885 117.697C114.885 118.26 114.735 118.677 114.435 118.949C114.135 119.213 113.693 119.345 113.107 119.345H112.019V122.183H111.109V114.88H113.086C113.679 114.88 114.125 115.012 114.425 115.276C114.732 115.534 114.885 115.944 114.885 116.507V117.697ZM113.975 116.413C113.975 116.149 113.912 115.958 113.787 115.84C113.668 115.721 113.476 115.662 113.211 115.662H112.019V118.563H113.211C113.476 118.563 113.668 118.503 113.787 118.385C113.912 118.26 113.975 118.065 113.975 117.801V116.413Z" fill="black"/>
<path d="M118.17 121.421V115.642H117.229V114.88H120.022V115.642H119.08V121.421H120.022V122.183H117.229V121.421H118.17Z" fill="black"/>
<path d="M123.809 122.183V115.673H122.146V114.88H126.382V115.673H124.719V122.183H123.809Z" fill="black"/>
<path d="M130.107 122.183C129.5 122.183 129.033 122.037 128.705 121.744C128.384 121.445 128.224 121 128.224 120.409V116.653C128.224 116.062 128.384 115.621 128.705 115.329C129.033 115.029 129.5 114.88 130.107 114.88H131.592V115.673H130.002C129.744 115.673 129.535 115.749 129.375 115.902C129.214 116.055 129.134 116.24 129.134 116.455V120.607C129.134 120.823 129.214 121.007 129.375 121.16C129.535 121.313 129.744 121.39 130.002 121.39H131.592V122.183H130.107Z" fill="black"/>
<path d="M134.469 118.823V122.183H133.559V114.88H134.469V118.051H136.624V114.88H137.534V122.183H136.624V118.823H134.469Z" fill="black"/>
<path d="M89.8042 273.677C103.933 273.677 104.09 273.677 104.09 273.677" stroke="black" stroke-width="0.52928"/>
<path d="M47.8462 273.656C62.0521 273.656 62.21 273.656 62.21 273.656" stroke="black" stroke-width="0.530733"/>
<path d="M89.8042 208.725C103.933 208.725 104.09 208.725 104.09 208.725" stroke="black" stroke-width="0.52928"/>
<path d="M47.8462 208.704C62.0521 208.704 62.21 208.704 62.21 208.704" stroke="black" stroke-width="0.530733"/>
<path d="M89.8042 143.832C103.933 143.832 104.09 143.832 104.09 143.832" stroke="black" stroke-width="0.52928"/>
<path d="M47.8462 143.811C62.0521 143.811 62.21 143.811 62.21 143.811" stroke="black" stroke-width="0.530733"/>
<path d="M89.8042 78.8832C103.933 78.8832 104.09 78.8832 104.09 78.8832" stroke="black" stroke-width="0.52928"/>
<path d="M47.8462 78.8625C62.0521 78.8625 62.21 78.8625 62.21 78.8625" stroke="black" stroke-width="0.530733"/>
<path d="M203.948 304.717C208.43 304.717 208.48 304.717 208.48 304.717" stroke="black" stroke-width="0.52928"/>
<path d="M199.913 135.183C213.131 135.183 213.278 135.183 213.278 135.183" stroke="black" stroke-width="0.52928"/>
<path d="M175.505 55.4601C175.505 56.0513 175.342 56.4964 175.014 56.7955C174.693 57.0876 174.229 57.2336 173.623 57.2336H172.137V56.4407H173.727C173.985 56.4407 174.194 56.3643 174.355 56.2112C174.515 56.0582 174.595 55.8739 174.595 55.6583V54.5734C174.595 54.3647 174.54 54.1978 174.428 54.0726C174.324 53.9405 174.163 53.8744 173.947 53.8744H173.633C173.117 53.8744 172.709 53.7249 172.409 53.4258C172.109 53.1198 171.959 52.6782 171.959 52.1009V51.7045C171.959 51.1133 172.12 50.6717 172.441 50.3796C172.768 50.0805 173.236 49.931 173.842 49.931H175.338V50.7238H173.738C173.48 50.7238 173.27 50.8003 173.11 50.9533C172.95 51.1063 172.87 51.2906 172.87 51.5062V52.2991C172.87 52.5147 172.939 52.6955 173.079 52.8416C173.218 52.9807 173.4 53.0503 173.623 53.0503H173.936C174.432 53.0503 174.815 53.1928 175.087 53.478C175.366 53.7631 175.505 54.1943 175.505 54.7716L175.505 55.4601Z" fill="black"/>
<path d="M181.27 52.7477C181.27 53.311 181.12 53.7283 180.82 53.9996C180.52 54.2639 180.077 54.396 179.492 54.396H178.404V57.2336H177.494V49.931H179.471C180.063 49.931 180.51 50.0631 180.81 50.3274C181.116 50.5847 181.27 50.9951 181.27 51.5584V52.7477ZM180.36 51.4645C180.36 51.2002 180.297 51.009 180.171 50.8907C180.053 50.7725 179.861 50.7134 179.596 50.7134H178.404V53.6136H179.596C179.861 53.6136 180.053 53.5545 180.171 53.4363C180.297 53.3111 180.36 53.1163 180.36 52.852V51.4645Z" fill="black"/>
<path d="M184.001 55.3871L183.593 57.2336H182.662L184.429 49.931H185.632L187.369 57.2336H186.438L186.04 55.3871H184.001ZM185.873 54.6047L185.015 50.6195L184.168 54.6047H185.873Z" fill="black"/>
<path d="M190.633 54.2708L189.974 57.2336H188.719L188.363 49.931H189.137L189.451 56.4512L190.319 53.0085H190.968L191.857 56.4512L192.181 49.931H192.903L192.547 57.2336H191.229L190.633 54.2708Z" fill="black"/>
<path d="M195.142 57.2336H194.295V49.931H195.78L197.433 56.4616V49.931H198.28V57.2336H196.784L195.142 50.703V57.2336Z" fill="black"/>
<path d="M17.1754 322.508V329.018H19.5081V329.811H16.2654V322.508H17.1754Z" fill="black"/>
<path d="M25.2723 322.508V323.27H22.6886V325.659H25.0108V326.42H22.6886V329.049H25.2723V329.811H21.7786V322.508H25.2723Z" fill="black"/>
<path d="M28.0135 329.811H27.1663V322.508H28.6516L30.3043 329.039V322.508H31.1516V329.811H29.6558L28.0135 323.28V329.811Z" fill="black"/>
<path d="M40.8602 327.359H39.992L38.9669 323.259V329.811H38.1719V322.508H39.6259L40.4627 326.243L41.3099 322.508H42.7221V329.811H41.9062V323.259L40.8602 327.359Z" fill="black"/>
<path d="M48.0887 328.037C48.0887 328.629 47.9249 329.074 47.5971 329.373C47.2763 329.665 46.8126 329.811 46.2059 329.811H45.9444C45.3377 329.811 44.8704 329.665 44.5427 329.373C44.2219 329.074 44.0615 328.629 44.0615 328.037V322.508H44.9716V328.236C44.9716 328.451 45.0517 328.635 45.212 328.788C45.3723 328.941 45.5816 329.018 45.8397 329.018H46.3104C46.5684 329.018 46.7776 328.941 46.938 328.788C47.0983 328.635 47.1785 328.451 47.1785 328.236V322.508H48.0885L48.0887 328.037Z" fill="black"/>
<path d="M51.0079 322.508V329.018H53.3406V329.811H50.0979V322.508H51.0079Z" fill="black"/>
<path d="M56.8975 329.811V323.301H55.2344V322.508H59.4708V323.301H57.8076V329.811H56.8975Z" fill="black"/>
<path d="M109.433 244.936V251.446H111.766V252.238H108.523V244.936H109.433Z" fill="black"/>
<path d="M117.53 244.936V245.697H114.946V248.086H117.269V248.848H114.946V251.477H117.53V252.238H114.036V244.936H117.53Z" fill="black"/>
<path d="M120.271 252.238H119.424V244.936H120.909L122.562 251.466V244.936H123.409V252.238H121.914L120.271 245.708V252.238Z" fill="black"/>
<path d="M127.103 252.238C126.496 252.238 126.029 252.092 125.701 251.8C125.38 251.501 125.22 251.056 125.22 250.465V246.709C125.22 246.118 125.38 245.676 125.701 245.384C126.029 245.085 126.496 244.936 127.103 244.936H128.577V245.729H126.998C126.74 245.729 126.531 245.805 126.37 245.958C126.21 246.111 126.13 246.295 126.13 246.511V250.663C126.13 250.879 126.21 251.063 126.37 251.216C126.531 251.369 126.74 251.445 126.998 251.445H128.023V249.182H127.113V248.399H128.891V252.238L127.103 252.238Z" fill="black"/>
<path d="M132.239 252.238V245.729H130.576V244.936H134.813V245.729H133.149V252.238H132.239Z" fill="black"/>
<path d="M137.261 248.879V252.238H136.351V244.936H137.261V248.107H139.416V244.936H140.326V252.238H139.416V248.879H137.261Z" fill="black"/>
<path d="M101.556 185.286L101.148 187.132H100.217L101.985 179.829H103.188L104.924 187.132H103.993L103.595 185.286H101.556ZM103.428 184.503L102.57 180.518L101.723 184.503H103.428Z" fill="black"/>
<path d="M108.627 184.681H107.759L106.734 180.581V187.132H105.939V179.829H107.393L108.23 183.564L109.077 179.829H110.489V187.132H109.673V180.581L108.627 184.681Z" fill="black"/>
<path d="M115.741 182.646C115.741 183.21 115.591 183.627 115.291 183.898C114.992 184.162 114.549 184.295 113.963 184.295H112.875V187.132H111.965V179.829H113.942C114.535 179.829 114.981 179.962 115.281 180.226C115.588 180.483 115.741 180.894 115.741 181.457V182.646ZM114.831 181.363C114.831 181.099 114.768 180.907 114.643 180.789C114.524 180.671 114.333 180.612 114.068 180.612H112.875V183.512H114.068C114.333 183.512 114.524 183.453 114.643 183.335C114.768 183.209 114.831 183.015 114.831 182.75V181.363Z" fill="black"/>
<path d="M126.893 185.359C126.893 185.95 126.729 186.395 126.402 186.694C126.081 186.986 125.617 187.132 125.01 187.132H123.525V186.339H125.115C125.373 186.339 125.582 186.263 125.743 186.11C125.903 185.957 125.983 185.773 125.983 185.557V184.472C125.983 184.263 125.927 184.096 125.816 183.971C125.711 183.839 125.551 183.773 125.335 183.773H125.021C124.505 183.773 124.097 183.624 123.797 183.324C123.497 183.018 123.347 182.577 123.347 182V181.603C123.347 181.012 123.508 180.57 123.828 180.278C124.156 179.979 124.623 179.83 125.23 179.83H126.726V180.622H125.125C124.867 180.622 124.658 180.699 124.498 180.852C124.337 181.005 124.257 181.189 124.257 181.405V182.198C124.257 182.413 124.327 182.594 124.467 182.74C124.606 182.879 124.788 182.949 125.011 182.949H125.324C125.82 182.949 126.203 183.092 126.475 183.377C126.754 183.662 126.893 184.093 126.893 184.67L126.893 185.359Z" fill="black"/>
<path d="M130.053 179.829V186.339H132.385V187.132H129.143V179.829H130.053Z" fill="black"/>
<path d="M138.495 185.359C138.495 185.95 138.331 186.395 138.003 186.694C137.683 186.986 137.219 187.132 136.612 187.132H136.194C135.587 187.132 135.12 186.986 134.792 186.694C134.471 186.395 134.311 185.95 134.311 185.359V181.603C134.311 181.012 134.471 180.57 134.792 180.278C135.12 179.979 135.587 179.829 136.194 179.829H136.612C137.219 179.829 137.683 179.979 138.003 180.278C138.331 180.57 138.495 181.012 138.495 181.603V185.359ZM137.585 181.405C137.585 181.189 137.505 181.005 137.344 180.852C137.184 180.699 136.975 180.622 136.717 180.622H136.089C135.831 180.622 135.622 180.699 135.462 180.852C135.301 181.005 135.221 181.189 135.221 181.405V185.557C135.221 185.772 135.301 185.957 135.462 186.11C135.622 186.263 135.831 186.339 136.089 186.339H136.717C136.975 186.339 137.184 186.263 137.344 186.11C137.505 185.957 137.585 185.772 137.585 185.557V181.405Z" fill="black"/>
<path d="M143.935 182.646C143.935 183.21 143.785 183.627 143.485 183.898C143.185 184.162 142.742 184.295 142.157 184.295H141.069V187.132H140.159V179.829H142.136C142.728 179.829 143.175 179.962 143.475 180.226C143.781 180.483 143.935 180.894 143.935 181.457V182.646ZM143.025 181.363C143.025 181.099 142.962 180.907 142.837 180.789C142.718 180.671 142.526 180.612 142.261 180.612H141.069V183.512H142.261C142.526 183.512 142.718 183.453 142.837 183.335C142.962 183.209 143.025 183.015 143.025 182.75V181.363Z" fill="black"/>
<path d="M149.427 179.829V180.591H146.843V182.98H149.166V183.742H146.843V186.371H149.427V187.132H145.933V179.829H149.427Z" fill="black"/>
<path d="M88.5122 315.77C110.186 292.624 110.427 292.367 110.427 292.367" stroke="black" stroke-width="0.52928"/>
<path d="M180.898 171.308C180.898 171.871 180.749 172.288 180.449 172.56C180.149 172.824 179.706 172.956 179.12 172.956H178.032V175.794H177.122V168.491H179.099C179.692 168.491 180.138 168.623 180.438 168.887C180.745 169.145 180.898 169.555 180.898 170.118V171.308ZM179.988 170.025C179.988 169.76 179.926 169.569 179.8 169.451C179.682 169.332 179.49 169.273 179.225 169.273H178.032V172.174H179.225C179.49 172.174 179.682 172.114 179.8 171.996C179.926 171.871 179.988 171.676 179.988 171.412V170.025Z" fill="black"/>
<path d="M183.629 173.947L183.221 175.794H182.29L184.058 168.491H185.261L186.997 175.794H186.066L185.669 173.947H183.629ZM185.502 173.165L184.644 169.18L183.797 173.165H185.502Z" fill="black"/>
<path d="M189.132 175.794H188.285V168.491H189.77L191.423 175.022V168.491H192.27V175.794H190.774L189.132 169.263V175.794Z" fill="black"/>
<path d="M199.913 194.462C213.132 194.462 213.279 194.462 213.279 194.462" stroke="black" stroke-width="0.52928"/>
<path d="M223.834 216.008C223.834 216.487 223.722 216.826 223.499 217.027C223.282 217.227 222.919 217.327 222.411 217.327H220.738V211.485H222.311C222.807 211.485 223.17 211.585 223.399 211.785C223.633 211.986 223.75 212.319 223.75 212.787V213.263C223.75 213.691 223.597 214.014 223.29 214.231C223.653 214.431 223.834 214.773 223.834 215.257V216.008ZM223.022 212.712C223.022 212.5 222.972 212.347 222.871 212.253C222.777 212.158 222.623 212.111 222.411 212.111H221.466V213.955H222.411C222.584 213.955 222.729 213.9 222.846 213.788C222.964 213.677 223.022 213.529 223.022 213.346L223.022 212.712ZM223.106 215.182C223.106 214.999 223.05 214.854 222.938 214.748C222.827 214.637 222.679 214.581 222.495 214.581H221.466V216.701H222.487C222.699 216.701 222.855 216.654 222.955 216.559C223.056 216.459 223.106 216.303 223.106 216.092L223.106 215.182Z" fill="black"/>
<path d="M226.428 216.718V212.094H225.675V211.485H227.91V212.094H227.156V216.718H227.91V217.327H225.675V216.718H226.428Z" fill="black"/>
<path d="M221.502 175.934C221.502 176.407 221.371 176.764 221.109 177.003C220.852 177.236 220.481 177.353 219.996 177.353H219.787C219.301 177.353 218.928 177.236 218.665 177.003C218.409 176.764 218.281 176.407 218.281 175.934V171.511H219.009V176.093C219.009 176.266 219.073 176.413 219.201 176.535C219.329 176.658 219.497 176.719 219.703 176.719H220.08C220.286 176.719 220.453 176.658 220.582 176.535C220.71 176.413 220.774 176.266 220.774 176.093V171.511H221.502L221.502 175.934Z" fill="black"/>
<path d="M223.486 177.353H222.808V171.511H223.997L225.319 176.736V171.511H225.997V177.353H224.8L223.486 172.129V177.353Z" fill="black"/>
<path d="M228.55 176.744V172.12H227.796V171.511H230.031V172.12H229.278V176.744H230.031V177.353H227.796V176.744H228.55Z" fill="black"/>
<path d="M84.2063 25.8962C83.3569 25.8962 82.7028 25.6917 82.244 25.2828C81.7949 24.8641 81.5703 24.2409 81.5703 23.4133V18.1554C81.5703 17.3278 81.7949 16.7095 82.244 16.3005C82.7028 15.8818 83.3569 15.6725 84.2063 15.6725H86.2712V16.7825H84.0598C83.6986 16.7825 83.4057 16.8896 83.1812 17.1038C82.9566 17.318 82.8444 17.576 82.8444 17.8779V23.6908C82.8444 23.9926 82.9566 24.2506 83.1812 24.4649C83.4057 24.6791 83.6986 24.7862 84.0598 24.7862H85.495V21.6168H84.2209V20.5214H86.7105V25.8962H84.2063Z" fill="black"/>
<path d="M90.3871 21.6606V25.8962H89.113V15.6725H91.8662C92.696 15.6725 93.3208 15.8575 93.7406 16.2275C94.1702 16.5878 94.385 17.1622 94.385 17.9509V19.353C94.385 20.4533 93.9457 21.1397 93.067 21.4124L95.1026 25.8962H93.7114L91.8222 21.6606H90.3871ZM93.1109 17.8195C93.1109 17.4495 93.0231 17.1817 92.8473 17.0162C92.6814 16.8506 92.4129 16.7679 92.0419 16.7679H90.3871V20.5653H92.0419C92.4129 20.5653 92.6814 20.4825 92.8473 20.317C93.0231 20.1417 93.1109 19.8691 93.1109 19.4991V17.8195Z" fill="black"/>
<path d="M98.5156 23.311L97.9445 25.8962H96.6411L99.116 15.6725H100.8L103.231 25.8962H101.928L101.371 23.311H98.5156ZM101.137 22.2156L99.9361 16.6364L98.7499 22.2156H101.137Z" fill="black"/>
<path d="M107.186 24.83V16.7387H105.868V15.6725H109.778V16.7387H108.46V24.83H109.778V25.8962H105.868V24.83H107.186Z" fill="black"/>
<path d="M114.114 25.8962H112.927V15.6725H115.007L117.321 24.8154V15.6725H118.507V25.8962H116.413L114.114 16.7533V25.8962Z" fill="black"/>
<path d="M133.959 15.6725V16.7387H130.342V20.0833H133.593V21.1495H130.342V24.83H133.959V25.8962H129.068V15.6725H133.959Z" fill="black"/>
<path d="M137.797 25.8962H136.61V15.6725H138.69L141.004 24.8154V15.6725H142.19V25.8962H140.096L137.797 16.7533V25.8962Z" fill="black"/>
<path d="M147.36 25.8962C146.511 25.8962 145.857 25.6917 145.398 25.2828C144.949 24.8641 144.724 24.2409 144.724 23.4133V18.1554C144.724 17.3278 144.949 16.7095 145.398 16.3005C145.857 15.8818 146.511 15.6725 147.36 15.6725H149.425V16.7825H147.214C146.852 16.7825 146.56 16.8896 146.335 17.1038C146.11 17.318 145.998 17.576 145.998 17.8779V23.6908C145.998 23.9926 146.11 24.2506 146.335 24.4649C146.56 24.6791 146.852 24.7862 147.214 24.7862H148.649V21.6168H147.375V20.5214H149.864V25.8962H147.36Z" fill="black"/>
<path d="M154.551 24.83V16.7387H153.233V15.6725H157.143V16.7387H155.825V24.83H157.143V25.8962H153.233V24.83H154.551Z" fill="black"/>
<path d="M161.479 25.8962H160.293V15.6725H162.372L164.686 24.8154V15.6725H165.872V25.8962H163.778L161.479 16.7533V25.8962Z" fill="black"/>
<path d="M173.43 15.6725V16.7387H169.813V20.0833H173.064V21.1495H169.813V24.83H173.43V25.8962H168.539V15.6725H173.43Z" fill="black"/>
</g>
<defs>
<clipPath id="clip0_2893_333">
<rect width="255" height="380" fill="white"/>
</clipPath>
</defs>
</svg>
