<svg width="255" height="380" viewBox="0 0 255 380" fill="none" xmlns="http://www.w3.org/2000/svg">
<g clip-path="url(#clip0_2893_690)">
<path d="M0 0H255V380H0V0Z" fill="#E6E6E6"/>
<path d="M189.234 367.432H11.3267V12.5681H189.234V367.432Z" fill="white"/>
<path d="M11.507 373.057C11.4872 373.008 11.4587 372.969 11.4213 372.942C11.3865 372.915 11.3444 372.893 11.295 372.875L11.0125 372.76V372.53H12.7456V372.76L12.1988 372.92L13.0803 374.993L13.2552 375.52H13.2961L14.2818 372.998L13.7648 372.76V372.53H15.1855V372.76L14.8917 372.942C14.8421 372.967 14.7987 372.993 14.7615 373.02C14.7243 373.047 14.6958 373.083 14.6758 373.127L13.6567 375.609L13.2514 376.418H12.9315L11.507 373.057Z" fill="#999999"/>
<path d="M17.3165 376.477C17.0388 376.477 16.7859 376.43 16.5578 376.336C16.3297 376.242 16.1338 376.109 15.9701 375.936C15.809 375.76 15.6839 375.547 15.5945 375.298C15.5077 375.048 15.4644 374.768 15.4644 374.459C15.4644 374.172 15.5077 373.905 15.5945 373.658C15.6839 373.411 15.8091 373.196 15.9701 373.013C16.1338 372.83 16.3322 372.686 16.5652 372.582C16.7983 372.476 17.0611 372.423 17.3537 372.423C17.6711 372.423 17.9451 372.479 18.1757 372.59C18.4087 372.701 18.6009 372.849 18.7521 373.035C18.9059 373.22 19.02 373.436 19.0943 373.68C19.1686 373.923 19.2058 374.177 19.2058 374.444C19.2058 374.726 19.1624 374.991 19.0756 375.238C18.9888 375.485 18.8636 375.702 18.7 375.887C18.5389 376.07 18.3418 376.215 18.1086 376.321C17.8756 376.425 17.6116 376.477 17.3165 376.477ZM17.3723 376.129C17.5805 376.129 17.7528 376.078 17.8892 375.977C18.028 375.875 18.1371 375.747 18.2165 375.591C18.2983 375.432 18.3554 375.259 18.3876 375.071C18.4198 374.881 18.4359 374.698 18.4359 374.522C18.4359 374.307 18.4149 374.096 18.3728 373.888C18.333 373.678 18.2673 373.49 18.1756 373.324C18.0864 373.159 17.9699 373.025 17.826 372.924C17.6823 372.822 17.5075 372.772 17.3016 372.772C17.1628 372.772 17.0401 372.795 16.9334 372.842C16.8292 372.889 16.7375 372.952 16.6582 373.031C16.5789 373.111 16.512 373.203 16.4575 373.31C16.4055 373.414 16.3621 373.525 16.3273 373.644C16.2951 373.762 16.2715 373.883 16.2567 374.007C16.2449 374.131 16.2389 374.251 16.2389 374.367C16.2389 374.498 16.2469 374.633 16.2627 374.771C16.2785 374.907 16.3033 375.041 16.3371 375.172C16.3743 375.3 16.4214 375.423 16.4785 375.539C16.5357 375.655 16.6063 375.757 16.6905 375.843C16.7747 375.93 16.8727 375.999 16.9844 376.051C17.0984 376.103 17.226 376.129 17.3723 376.129Z" fill="#999999"/>
<path d="M19.5879 376.147L19.9189 376.01C19.9709 375.99 20.0205 375.962 20.0677 375.924C20.1174 375.885 20.1558 375.849 20.1831 375.817L21.2393 374.511L20.2054 373.068C20.1755 373.024 20.1408 372.985 20.1013 372.953C20.0615 372.918 20.0132 372.893 19.9563 372.875L19.6216 372.76V372.53H21.3176V372.76L20.9196 372.912L21.4998 373.743L21.7044 374.11H21.7311L22.6014 372.949L22.248 372.76V372.53H23.5609V372.76L23.2299 372.901C23.1779 372.921 23.1283 372.949 23.0811 372.987C23.0364 373.024 22.9992 373.06 22.9696 373.094L21.9542 374.348L23.0254 375.843C23.0576 375.887 23.0936 375.927 23.1333 375.962C23.1754 375.994 23.2238 376.018 23.2783 376.036L23.6019 376.147V376.381H21.9059V376.147L22.3113 375.998L21.6902 375.112L21.4856 374.748H21.4589L20.5515 375.961L20.9048 376.147V376.38H19.5882L19.5879 376.147Z" fill="#999999"/>
<path d="M24.8052 376.277C24.7407 376.257 24.6725 376.229 24.6006 376.192C24.5312 376.154 24.4668 376.107 24.4073 376.05C24.3478 375.993 24.2981 375.927 24.2584 375.85C24.2212 375.771 24.2027 375.681 24.2027 375.579C24.2027 375.466 24.2237 375.367 24.2658 375.283C24.3105 375.196 24.3662 375.123 24.433 375.064C24.5001 375.002 24.5745 374.952 24.6563 374.915C24.7382 374.878 24.8163 374.851 24.8906 374.834V374.807C24.8137 374.763 24.7368 374.709 24.6599 374.648C24.583 374.583 24.5136 374.508 24.4517 374.422C24.3922 374.335 24.3426 374.236 24.3029 374.125C24.2657 374.011 24.2471 373.882 24.2471 373.739C24.2471 373.556 24.2831 373.384 24.3551 373.223C24.4294 373.063 24.5336 372.923 24.6675 372.804C24.8013 372.686 24.9625 372.593 25.151 372.526C25.3394 372.457 25.5489 372.422 25.7795 372.422C25.9284 372.422 26.0697 372.432 26.2035 372.452C26.3373 372.471 26.4662 372.497 26.5903 372.529H27.8958L27.851 372.986L26.8654 372.86V372.883C26.9249 372.948 26.9782 373.012 27.0252 373.076C27.0723 373.141 27.1119 373.209 27.1441 373.28C27.1789 373.35 27.2049 373.424 27.2221 373.503C27.2399 373.58 27.2488 373.664 27.2488 373.755C27.2488 373.938 27.2141 374.108 27.1447 374.263C27.0777 374.419 26.9797 374.555 26.8508 374.671C26.722 374.785 26.5633 374.874 26.3748 374.938C26.1888 375.003 25.9755 375.035 25.7351 375.035C25.673 375.035 25.6098 375.032 25.5453 375.026C25.4833 375.018 25.4237 375.01 25.3668 375.002C25.3097 374.992 25.2564 374.981 25.207 374.969C25.1599 374.957 25.1203 374.945 25.0881 374.932C25.0509 374.94 25.0138 374.954 24.9766 374.976C24.9418 374.999 24.9096 375.027 24.8799 375.062C24.8501 375.094 24.8253 375.132 24.8055 375.177C24.7877 375.221 24.7788 375.27 24.7788 375.321C24.7788 375.373 24.7877 375.423 24.8055 375.47C24.8233 375.514 24.8468 375.554 24.8761 375.588C24.9059 375.623 24.9394 375.653 24.9766 375.677C25.0163 375.7 25.0573 375.715 25.0994 375.722H26.4123C26.6602 375.722 26.8672 375.752 27.0334 375.811C27.202 375.87 27.3371 375.948 27.4387 376.045C27.5429 376.141 27.6161 376.249 27.6582 376.367C27.7029 376.484 27.7252 376.6 27.7252 376.716C27.7252 376.931 27.6719 377.128 27.5653 377.306C27.4612 377.486 27.3174 377.641 27.1339 377.77C26.9505 377.901 26.7348 378.002 26.4868 378.074C26.2388 378.145 25.9723 378.181 25.6871 378.181C25.4417 378.181 25.2148 378.16 25.0065 378.118C24.8007 378.076 24.6222 378.013 24.471 377.929C24.3197 377.847 24.2007 377.746 24.1139 377.625C24.0295 377.504 23.9873 377.364 23.9873 377.206C23.9873 377.077 24.0096 376.964 24.0543 376.865C24.1014 376.766 24.1622 376.679 24.2367 376.605C24.311 376.533 24.3965 376.472 24.4932 376.423C24.5924 376.374 24.6966 376.334 24.8056 376.304L24.8052 376.277ZM25.7536 374.738C25.8801 374.738 25.9917 374.714 26.0883 374.667C26.185 374.62 26.2655 374.552 26.33 374.463C26.3944 374.374 26.4427 374.267 26.475 374.14C26.5098 374.012 26.5271 373.867 26.5271 373.706C26.5271 373.551 26.5085 373.412 26.4714 373.291C26.4342 373.17 26.381 373.067 26.3116 372.983C26.2446 372.899 26.1628 372.836 26.0661 372.794C25.9718 372.749 25.8664 372.727 25.75 372.727C25.6359 372.727 25.533 372.748 25.4413 372.79C25.3495 372.832 25.2702 372.895 25.2031 372.979C25.1361 373.061 25.0841 373.164 25.0469 373.287C25.0121 373.408 24.9947 373.549 24.9947 373.71C24.9947 373.873 25.0121 374.019 25.0469 374.148C25.0841 374.274 25.1349 374.382 25.1993 374.47C25.2663 374.557 25.3469 374.624 25.441 374.671C25.5352 374.715 25.6396 374.738 25.7536 374.738ZM25.1176 376.321C25.0705 376.333 25.0209 376.357 24.9687 376.392C24.9168 376.427 24.8696 376.472 24.8273 376.529C24.7852 376.586 24.7505 376.654 24.7232 376.733C24.696 376.815 24.6823 376.907 24.6823 377.011C24.6823 377.115 24.7009 377.208 24.738 377.29C24.7752 377.371 24.8248 377.442 24.8869 377.501C24.9513 377.56 25.0245 377.61 25.1063 377.65C25.1882 377.689 25.2725 377.721 25.3592 377.746C25.446 377.771 25.5316 377.788 25.616 377.798C25.7028 377.808 25.7822 377.813 25.8541 377.813C26.0079 377.813 26.1604 377.797 26.3116 377.765C26.4654 377.735 26.6017 377.684 26.7207 377.613C26.8423 377.543 26.9402 377.453 27.0145 377.342C27.0889 377.233 27.126 377.101 27.126 376.945C27.126 376.873 27.1111 376.8 27.0812 376.726C27.054 376.652 27.0094 376.585 26.9475 376.526C26.888 376.466 26.8086 376.418 26.7094 376.381C26.6128 376.342 26.4974 376.322 26.3635 376.322L25.1176 376.321Z" fill="#999999"/>
<path d="M28.2534 376.147L28.7554 376.017C28.8025 376.005 28.8397 375.984 28.867 375.954C28.8968 375.922 28.9117 375.88 28.9117 375.828V371.444C28.9117 371.387 28.8956 371.341 28.8634 371.306C28.8312 371.269 28.7853 371.241 28.7258 371.221L28.2349 371.039V370.832L29.6147 370.691V375.828C29.6147 375.88 29.6295 375.922 29.6591 375.954C29.6914 375.987 29.7286 376.008 29.7707 376.017L30.2467 376.147V376.381H28.2532L28.2534 376.147Z" fill="#999999"/>
<path d="M31.6699 371.689C31.6005 371.689 31.5348 371.677 31.4727 371.655C31.4132 371.631 31.36 371.598 31.3129 371.559C31.2682 371.519 31.2322 371.471 31.205 371.414C31.1777 371.355 31.1641 371.289 31.1641 371.218C31.1641 371.146 31.1777 371.08 31.205 371.021C31.2322 370.962 31.2682 370.912 31.3129 370.872C31.36 370.83 31.4132 370.798 31.4727 370.776C31.5348 370.754 31.6005 370.743 31.6699 370.743C31.7442 370.743 31.8136 370.754 31.8781 370.776C31.9425 370.796 31.997 370.825 32.0417 370.865C32.0887 370.905 32.1247 370.953 32.1497 371.01C32.1769 371.064 32.1906 371.127 32.1906 371.199C32.1906 371.273 32.1769 371.34 32.1497 371.399C32.1249 371.458 32.0889 371.51 32.0417 371.555C31.9947 371.597 31.9389 371.63 31.8745 371.655C31.81 371.677 31.7418 371.689 31.6699 371.689ZM30.7029 376.147L31.2162 376.017C31.2632 376.005 31.3017 375.984 31.3315 375.954C31.3614 375.922 31.3763 375.88 31.3763 375.828V373.291C31.3763 373.234 31.3601 373.188 31.3279 373.154C31.2957 373.117 31.2486 373.088 31.1865 373.068L30.7142 372.905V372.697L32.0754 372.479V375.828C32.0754 375.88 32.0903 375.922 32.1202 375.954C32.1524 375.986 32.1896 376.007 32.2317 376.017L32.7263 376.147V376.381H30.7031L30.7029 376.147Z" fill="#999999"/>
<path d="M33.6729 372.92H33.0518V372.634C33.1534 372.615 33.2451 372.596 33.3269 372.579C33.4111 372.561 33.483 372.534 33.5425 372.497C33.602 372.458 33.6491 372.403 33.6839 372.334C33.7211 372.265 33.7434 372.17 33.7509 372.048L33.7806 371.533L34.3756 371.418V372.542H35.7406L35.6849 372.92H34.3757V375.494C34.3757 375.576 34.4017 375.645 34.4537 375.702C34.5059 375.759 34.5691 375.806 34.6434 375.843C34.7203 375.88 34.7997 375.907 34.8816 375.925C34.9634 375.94 35.0354 375.948 35.0974 375.948C35.1395 375.948 35.1867 375.944 35.2389 375.937C35.2934 375.927 35.3455 375.917 35.3951 375.907C35.4447 375.895 35.4906 375.881 35.5327 375.866C35.5774 375.85 35.6109 375.838 35.6332 375.829H35.7299V376.092C35.6951 376.115 35.6418 376.146 35.57 376.185C35.5007 376.225 35.4188 376.264 35.3245 376.304C35.2328 376.343 35.1312 376.377 35.0196 376.404C34.9104 376.434 34.8001 376.449 34.6886 376.449C34.5496 376.449 34.4182 376.431 34.2943 376.397C34.1728 376.362 34.0661 376.312 33.9745 376.248C33.8827 376.184 33.8096 376.105 33.7551 376.011C33.7005 375.914 33.6732 375.804 33.6732 375.681L33.6729 372.92Z" fill="#999999"/>
<path d="M39.3916 375.465V375.832C39.3072 375.906 39.2117 375.981 39.1052 376.058C39.001 376.132 38.8857 376.2 38.7593 376.262C38.6354 376.324 38.5015 376.374 38.3577 376.411C38.2138 376.45 38.0613 376.47 37.9002 376.47C37.6324 376.47 37.3907 376.421 37.1749 376.322C36.9592 376.223 36.7757 376.087 36.6245 375.914C36.4732 375.738 36.3567 375.533 36.2749 375.298C36.1956 375.063 36.156 374.808 36.156 374.534C36.156 374.336 36.1795 374.147 36.2265 373.966C36.2762 373.786 36.3456 373.617 36.4347 373.462C36.5241 373.306 36.6307 373.165 36.7545 373.039C36.8811 372.91 37.0199 372.802 37.1711 372.712C37.3249 372.624 37.4898 372.554 37.6658 372.505C37.8419 372.455 38.0254 372.431 38.2162 372.431C38.3625 372.431 38.4914 372.443 38.603 372.468C38.7171 372.49 38.8162 372.517 38.9006 372.549C38.9873 372.579 39.0605 372.611 39.12 372.646C39.1821 372.678 39.2366 372.704 39.2836 372.723L39.2241 373.417H39.0865C38.9922 373.358 38.898 373.297 38.8039 373.235C38.7122 373.171 38.6155 373.114 38.5139 373.064C38.4147 373.013 38.3081 372.971 38.1941 372.939C38.08 372.904 37.9523 372.886 37.811 372.886C37.7663 372.886 37.718 372.892 37.666 372.904C37.614 372.914 37.5619 372.93 37.5097 372.952C37.4577 372.975 37.4094 373.001 37.3647 373.03C37.32 373.06 37.2816 373.093 37.2494 373.13C37.2096 373.175 37.1687 373.231 37.1266 373.298C37.0869 373.362 37.0497 373.443 37.0151 373.542C36.9829 373.639 36.9556 373.753 36.9333 373.884C36.9135 374.015 36.9037 374.168 36.9037 374.344C36.9037 374.596 36.9309 374.821 36.9855 375.019C37.04 375.216 37.1219 375.385 37.231 375.523C37.3401 375.662 37.4752 375.768 37.6364 375.842C37.7975 375.914 37.9847 375.95 38.198 375.95C38.317 375.95 38.4298 375.932 38.5364 375.898C38.6455 375.863 38.7472 375.822 38.8414 375.775C38.9357 375.726 39.0212 375.673 39.0979 375.616C39.1772 375.559 39.2454 375.508 39.3025 375.464L39.3916 375.465Z" fill="#999999"/>
<path d="M39.8562 376.147L40.2877 376.017C40.3397 376.002 40.3782 375.979 40.4031 375.95C40.4303 375.921 40.444 375.88 40.444 375.828V371.444C40.444 371.387 40.4279 371.341 40.3956 371.306C40.3634 371.272 40.3176 371.243 40.2581 371.221L39.8303 371.039V370.832L41.1432 370.691V372.876V373.076C41.2523 372.932 41.359 372.819 41.4631 372.734C41.5696 372.648 41.6738 372.582 41.7755 372.538C41.8797 372.491 41.9813 372.46 42.0805 372.445C42.1821 372.429 42.2825 372.421 42.3817 372.421C42.5527 372.421 42.7126 372.447 42.8615 372.499C43.0127 372.549 43.1441 372.626 43.2557 372.733C43.3698 372.839 43.459 372.976 43.5235 373.144C43.5879 373.313 43.6201 373.513 43.6201 373.745V375.808C43.6201 375.87 43.635 375.917 43.6649 375.949C43.6947 375.981 43.7307 376.003 43.7728 376.016L44.1671 376.145V376.379H42.3744V376.145L42.7687 376.016C42.8108 376.004 42.8468 375.981 42.8766 375.949C42.9065 375.917 42.9214 375.87 42.9214 375.808V374.035C42.9214 373.862 42.9102 373.708 42.8879 373.575C42.8681 373.439 42.8272 373.324 42.7651 373.23C42.7031 373.133 42.6163 373.06 42.5048 373.011C42.3957 372.961 42.2518 372.937 42.0733 372.937C41.9915 372.937 41.9085 372.943 41.8243 372.954C41.7401 372.966 41.657 372.987 41.5752 373.017C41.4934 373.047 41.4153 373.087 41.341 373.136C41.2667 373.185 41.2009 373.246 41.1438 373.318V375.825C41.1438 375.877 41.1574 375.918 41.1847 375.948C41.2146 375.978 41.253 376 41.3001 376.015L41.6497 376.144V376.378H39.857L39.8562 376.147Z" fill="#999999"/>
<path d="M212.042 18.0237C211.435 18.0237 210.968 17.8776 210.64 17.5855C210.319 17.2865 210.159 16.8414 210.159 16.2502V12.4946C210.159 11.9034 210.319 11.4618 210.64 11.1697C210.968 10.8706 211.435 10.7211 212.042 10.7211H213.527V11.5139H211.937C211.679 11.5139 211.47 11.5904 211.309 11.7434C211.149 11.8964 211.069 12.0807 211.069 12.2963V16.4484C211.069 16.664 211.149 16.8483 211.309 17.0013C211.47 17.1543 211.679 17.2308 211.937 17.2308H213.527V18.0237L212.042 18.0237Z" fill="black"/>
<path d="M216.77 10.7211V17.2308H219.103V18.0237H215.86V10.7211H216.77Z" fill="black"/>
<path d="M225.212 16.2502C225.212 16.8414 225.049 17.2865 224.721 17.5855C224.4 17.8776 223.936 18.0237 223.33 18.0237H222.911C222.304 18.0237 221.837 17.8776 221.509 17.5855C221.189 17.2865 221.028 16.8414 221.028 16.2502V12.4946C221.028 11.9034 221.189 11.4618 221.509 11.1697C221.837 10.8706 222.304 10.7211 222.911 10.7211H223.33C223.936 10.7211 224.4 10.8706 224.721 11.1697C225.049 11.4618 225.212 11.9034 225.212 12.4946V16.2502ZM224.302 12.2964C224.302 12.0808 224.222 11.8964 224.062 11.7434C223.902 11.5904 223.692 11.5139 223.434 11.5139H222.807C222.549 11.5139 222.339 11.5904 222.179 11.7434C222.019 11.8964 221.939 12.0808 221.939 12.2964V16.4484C221.939 16.664 222.019 16.8483 222.179 17.0013C222.339 17.1543 222.549 17.2308 222.807 17.2308H223.434C223.692 17.2308 223.901 17.1543 224.062 17.0013C224.222 16.8483 224.302 16.664 224.302 16.4484V12.2964Z" fill="black"/>
<path d="M228.958 18.0237C228.351 18.0237 227.884 17.8776 227.556 17.5855C227.235 17.2865 227.075 16.8414 227.075 16.2502V12.4946C227.075 11.9034 227.235 11.4618 227.556 11.1697C227.884 10.8706 228.351 10.7211 228.958 10.7211H230.443V11.5139H228.853C228.595 11.5139 228.386 11.5904 228.226 11.7434C228.065 11.8964 227.985 12.0807 227.985 12.2963V16.4484C227.985 16.664 228.065 16.8483 228.226 17.0013C228.386 17.1543 228.595 17.2308 228.853 17.2308H230.443V18.0237L228.958 18.0237Z" fill="black"/>
<path d="M233.331 15.3322V18.0237H232.421V10.7211H233.331V13.8716L235.318 10.7211H236.312L234.293 13.9447L236.437 18.0237H235.391L233.728 14.7375L233.331 15.3322Z" fill="black"/>
<path d="M210.697 66.6597V69.6851H209.787V62.3825H211.753C212.346 62.3825 212.792 62.5147 213.092 62.7789C213.399 63.0363 213.553 63.4466 213.553 64.0099V65.0114C213.553 65.7973 213.239 66.2877 212.611 66.4824L214.065 69.6851H213.071L211.722 66.6597H210.697ZM212.642 63.916C212.642 63.6518 212.58 63.4605 212.454 63.3423C212.336 63.2241 212.144 63.1649 211.879 63.1649H210.697V65.8773H211.879C212.144 65.8773 212.336 65.8182 212.454 65.7C212.58 65.5748 212.642 65.3801 212.642 65.1158V63.916Z" fill="black"/>
<path d="M219.264 62.3825V63.1441H216.681V65.5331H219.003V66.2946H216.681V68.9236H219.264V69.6851H215.771V62.3825H219.264Z" fill="black"/>
<path d="M224.924 67.9116C224.924 68.5028 224.76 68.9479 224.433 69.247C224.112 69.5391 223.648 69.6851 223.041 69.6851H221.556V68.8923H223.146C223.404 68.8923 223.613 68.8158 223.774 68.6628C223.934 68.5098 224.014 68.3255 224.014 68.1099V67.0249C224.014 66.8163 223.958 66.6493 223.847 66.5241C223.742 66.392 223.582 66.3259 223.366 66.3259H223.052C222.536 66.3259 222.128 66.1764 221.828 65.8773C221.528 65.5713 221.378 65.1297 221.378 64.5524V64.156C221.378 63.5648 221.539 63.1232 221.859 62.8311C222.187 62.532 222.654 62.3825 223.261 62.3825H224.757V63.1754H223.156C222.898 63.1754 222.689 63.2519 222.529 63.4049C222.369 63.5579 222.288 63.7422 222.288 63.9578V64.7506C222.288 64.9662 222.358 65.1471 222.497 65.2931C222.637 65.4322 222.818 65.5018 223.041 65.5018H223.355C223.85 65.5018 224.234 65.6444 224.506 65.9295C224.785 66.2147 224.924 66.6459 224.924 67.2231V67.9116Z" fill="black"/>
<path d="M230.542 62.3825V63.1441H227.958V65.5331H230.281V66.2946H227.958V68.9236H230.542V69.6851H227.048V62.3825H230.542Z" fill="black"/>
<path d="M233.974 69.6851V63.1753H232.31V62.3825H236.547V63.1753H234.884V69.6851H233.974Z" fill="black"/>
<path d="M219.414 122.185C219.414 122.776 219.25 123.221 218.922 123.52C218.602 123.812 218.138 123.958 217.531 123.958H217.113C216.506 123.958 216.039 123.812 215.711 123.52C215.39 123.221 215.23 122.776 215.23 122.185V118.429C215.23 117.838 215.39 117.397 215.711 117.104C216.039 116.805 216.506 116.656 217.113 116.656H217.531C218.138 116.656 218.602 116.805 218.922 117.104C219.25 117.397 219.414 117.838 219.414 118.429V122.185ZM218.504 118.231C218.504 118.016 218.424 117.831 218.264 117.678C218.103 117.525 217.894 117.449 217.636 117.449H217.008C216.75 117.449 216.541 117.525 216.381 117.678C216.22 117.831 216.14 118.016 216.14 118.231V122.383C216.14 122.599 216.22 122.783 216.381 122.936C216.541 123.089 216.75 123.166 217.008 123.166H217.636C217.894 123.166 218.103 123.089 218.264 122.936C218.424 122.783 218.504 122.599 218.504 122.383V118.231Z" fill="black"/>
<path d="M224.969 122.185C224.969 122.776 224.805 123.221 224.477 123.52C224.157 123.812 223.693 123.958 223.086 123.958H222.825C222.218 123.958 221.751 123.812 221.423 123.52C221.102 123.221 220.942 122.776 220.942 122.185V116.656H221.852V122.383C221.852 122.599 221.932 122.783 222.092 122.936C222.253 123.089 222.462 123.166 222.72 123.166H223.191C223.449 123.166 223.658 123.089 223.818 122.936C223.979 122.783 224.059 122.599 224.059 122.383V116.656H224.969L224.969 122.185Z" fill="black"/>
<path d="M228.139 123.958V117.449H226.476V116.656H230.713V117.449H229.049V123.958H228.139Z" fill="black"/>
<path d="M239.062 108.712H207.188V367.719H239.062V108.712Z" fill="black" fill-opacity="0.05"/>
<path d="M50.0043 371.113C50.2269 371.354 50.4217 371.631 50.5886 371.946L50.0878 372.251C49.9023 371.9 49.726 371.622 49.5591 371.419L50.0043 371.113ZM51.3121 372.196C51.1452 371.844 50.9597 371.548 50.7556 371.308L51.2008 371.002C51.4234 371.243 51.6275 371.53 51.813 371.863L51.3121 372.196ZM52.0912 372.029C52.3138 371.678 52.4994 371.326 52.6478 370.975L53.1486 371.169C53.2599 371.225 53.2414 371.271 53.093 371.308C52.9446 371.641 52.7683 371.964 52.5643 372.279L52.0912 372.029ZM47.3052 375.11L47.5 372.751H48.7243V371.779H47.2495V371.252H49.2808V373.528H48.7243V373.278H48.0008L47.9174 374.305H49.3365L49.1974 376.469C49.1603 377.024 48.9376 377.302 48.5295 377.302H47.8061L47.7504 376.775H48.3904C48.5574 376.775 48.6501 376.654 48.6686 376.414L48.78 374.832H47.8617L47.8338 375.109L47.3052 375.11ZM51.2565 373.944H50.3104V374.582H51.2565V373.944ZM50.3104 372.89V373.5H51.2565V372.89H50.3104ZM52.6756 372.89H51.7295V373.5H52.6756V372.89ZM52.6756 373.944H51.7295V374.582H52.6756V373.944ZM53.1486 375.026H51.7295V375.554H53.6217V376.081H51.7295V377.302H51.2565V376.081H49.5034V375.554H51.2565V375.026H50.533H49.8373V372.446H53.1486V375.026Z" fill="#808080"/>
<path d="M59.3539 374.915C59.1685 375.748 58.8067 376.46 58.2687 377.052L57.6843 376.719C58.2594 376.183 58.6397 375.517 58.8252 374.721C58.1759 374.481 57.5173 374.314 56.8495 374.222C56.3487 375.295 56.0148 375.914 55.8478 376.081C55.6252 376.303 55.3655 376.414 55.0687 376.414C54.8461 376.414 54.6605 376.34 54.5121 376.192C54.3452 376.025 54.2617 375.775 54.2617 375.443C54.2617 375.054 54.4472 374.675 54.8182 374.305C55.2263 373.898 55.7736 373.694 56.46 373.694C56.6826 373.121 56.8866 372.584 57.0721 372.085C56.5527 372.214 56.0333 372.334 55.5139 372.445L55.2634 371.89C55.8756 371.816 56.46 371.715 57.0165 371.585L57.3504 371.446L57.8234 371.807C58.0089 371.918 58 372.001 57.7968 372.057C57.5556 372.482 57.2959 373.038 57.0176 373.722C57.6113 373.796 58.242 373.944 58.9098 374.166C58.947 373.722 58.9559 373.176 58.9365 372.529L59.4652 372.64C59.6693 372.677 59.6878 372.751 59.5209 372.862C59.5209 373.472 59.5024 373.972 59.4652 374.36C59.8176 374.49 60.2258 374.675 60.6895 374.915L60.4114 375.47C60.0219 375.248 59.6692 375.063 59.3539 374.915ZM56.2652 374.222C55.8385 374.222 55.4953 374.351 55.2356 374.61C54.9388 374.906 54.7904 375.184 54.7904 375.443C54.7904 375.554 54.8275 375.646 54.9017 375.72C54.9574 375.776 55.0408 375.803 55.1521 375.803C55.3191 375.803 55.4675 375.702 55.5974 375.498C55.7087 375.332 55.9313 374.906 56.2652 374.222Z" fill="#808080"/>
</g>
<defs>
<clipPath id="clip0_2893_690">
<rect width="255" height="380" fill="white"/>
</clipPath>
</defs>
</svg>
